<svg width="69" height="69" viewBox="0 0 69 69" fill="none" xmlns="http://www.w3.org/2000/svg">
<path d="M60.1497 12.525C60.1064 12.4601 60.0416 12.4169 59.9983 12.352C59.9335 12.2872 59.8903 12.2223 59.8254 12.1574C59.7822 12.0926 59.7173 12.0494 59.6741 11.9845C59.6092 11.9196 59.5444 11.8548 59.4795 11.7683C59.4795 11.7683 59.4795 11.7683 59.4579 11.7467C59.4579 11.7467 59.4579 11.7467 59.4363 11.7251C59.2201 11.4873 59.0039 11.2495 58.7445 10.99C58.7229 10.9684 58.7228 10.9684 58.7012 10.9468C58.7012 10.9468 58.7012 10.9252 58.6796 10.9252C58.5931 10.8171 58.485 10.7306 58.3986 10.6441C58.3553 10.6009 58.2905 10.5361 58.2472 10.4928C58.1391 10.3847 58.0311 10.2766 57.9446 10.1902C57.9013 10.1469 57.8581 10.1037 57.8149 10.0604L57.7933 10.0388C57.6635 9.93074 57.5554 9.80103 57.4257 9.69294C57.3609 9.62808 57.2744 9.56322 57.2096 9.49837C57.1663 9.45513 57.1015 9.39027 57.0582 9.34704C56.9501 9.23894 56.842 9.15247 56.7339 9.04438C56.7123 9.02276 56.6907 9.00114 56.6691 8.97952C56.5826 8.89305 56.4961 8.82819 56.4097 8.74172C56.388 8.7201 56.3664 8.69848 56.3448 8.67686C56.3016 8.65525 56.28 8.61201 56.2367 8.59039C56.2151 8.56877 56.1935 8.56877 56.1935 8.54715C56.1286 8.50391 56.0638 8.43906 56.0205 8.39582L55.9989 8.3742L55.9773 8.35259C55.7827 8.20126 55.5882 8.04992 55.372 7.87698C55.1558 7.70403 54.9396 7.53108 54.7234 7.37975C54.7018 7.35813 54.6802 7.33651 54.6586 7.33651C54.6369 7.33651 54.6369 7.3149 54.6153 7.3149C54.5072 7.25004 54.4208 7.16357 54.3127 7.09871C54.2694 7.07709 54.2262 7.03385 54.183 7.01223C54.0749 6.92576 53.9451 6.83929 53.8371 6.77443C53.7938 6.75281 53.7722 6.70957 53.729 6.68796C53.7073 6.66634 53.6857 6.66634 53.6857 6.64472C53.556 6.55825 53.4047 6.45015 53.275 6.36368C53.275 6.36368 53.275 6.36368 53.2534 6.36368C53.0804 6.25558 52.9291 6.14749 52.7777 6.06102C52.7561 6.06102 52.7561 6.0394 52.7561 6.0394C52.7561 6.0394 52.7345 6.0394 52.7345 6.01778C52.4751 5.84483 52.2157 5.69351 51.9779 5.54218C51.9562 5.54218 51.9562 5.52056 51.9346 5.52056C51.9346 5.52056 51.913 5.52055 51.913 5.49894C51.8049 5.43408 51.6968 5.36923 51.5887 5.30437C51.5455 5.28275 51.5239 5.26113 51.4806 5.23951C51.3509 5.17466 51.2428 5.1098 51.1131 5.02333C51.0915 5.00171 51.0699 5.00171 51.0483 4.98009C50.9618 4.93686 50.8753 4.872 50.7888 4.82876L50.7672 4.80714C50.7672 4.80714 50.7672 4.80714 50.7456 4.80714C50.551 4.69905 50.3565 4.59096 50.1619 4.48287C50.1187 4.46125 50.097 4.43963 50.0538 4.43963C49.9025 4.37477 49.7728 4.2883 49.6214 4.22344C49.535 4.18021 49.4485 4.13697 49.362 4.09373C49.2539 4.05049 49.1458 3.98564 49.0377 3.9424C49.0161 3.92078 48.9945 3.92078 48.9513 3.89917C48.9296 3.87755 48.8864 3.87755 48.8648 3.85593C48.5838 3.72622 48.3243 3.59651 48.0433 3.48841L47.8271 3.40194C47.6542 3.33708 47.5028 3.25061 47.3299 3.18575C46.984 3.03442 46.6165 2.90471 46.2489 2.75338C46.2057 2.73176 46.1625 2.71015 46.1192 2.71015H46.0976C45.9247 2.64529 45.7301 2.58044 45.5572 2.51558C45.5355 2.51558 45.5139 2.49396 45.4923 2.49396C45.2761 2.4291 45.0599 2.34263 44.8437 2.27777C44.8221 2.27777 44.8221 2.27777 44.8005 2.25615C44.8005 2.25615 44.8005 2.25615 44.7789 2.25615L44.5195 2.16968C44.4114 2.12644 44.3033 2.10483 44.1952 2.06159C43.3088 1.80217 42.4008 1.56436 41.5145 1.3698C41.3632 1.34818 41.2334 1.30494 41.0821 1.28332L40.9524 1.2617C39.9363 1.06714 38.9851 0.915807 38.0555 0.829333C37.9907 0.829333 37.9042 0.807713 37.8393 0.807713C37.7961 0.807713 37.7312 0.807713 37.688 0.786095C36.5422 0.678002 35.5045 0.634766 34.4885 0.634766C33.494 0.634766 32.4563 0.678002 31.2889 0.786095C31.2457 0.786095 31.1808 0.786094 31.1376 0.807713C31.0511 0.807713 30.9863 0.829333 30.8998 0.829333C29.9702 0.937426 29.019 1.06714 28.0029 1.2617L27.8732 1.28332C27.83 1.28332 27.7867 1.30494 27.7219 1.30494C27.6354 1.32656 27.5273 1.34818 27.4408 1.3698C26.5328 1.56436 25.6465 1.80217 24.7601 2.06159C24.652 2.10483 24.5439 2.12644 24.4358 2.16968L24.1332 2.27777C24.1332 2.27777 24.1332 2.27777 24.1116 2.27777C23.8954 2.34263 23.6792 2.4291 23.463 2.49396C23.4198 2.51558 23.3981 2.51558 23.3549 2.5372C23.182 2.60205 23.0306 2.64529 22.8577 2.71015C22.5118 2.83986 22.1659 2.96957 21.8416 3.09928C21.7551 3.1209 21.6903 3.16413 21.6038 3.18575C21.4309 3.25061 21.2795 3.31546 21.1282 3.40194L20.912 3.48841C20.631 3.61813 20.3716 3.72622 20.0905 3.85593C20.0689 3.87755 20.0257 3.87755 20.004 3.89917C19.9824 3.92078 19.9392 3.92078 19.9176 3.9424C19.8095 3.98564 19.7014 4.05049 19.5933 4.09373C19.5068 4.13697 19.4203 4.18021 19.3339 4.22344C19.1825 4.30992 19.0312 4.37477 18.8799 4.46125C18.8583 4.48287 18.8366 4.48287 18.815 4.50448C18.6637 4.59096 18.5124 4.67743 18.361 4.74229C18.3178 4.76391 18.2962 4.78552 18.2529 4.80714C18.1448 4.872 18.0368 4.93686 17.9287 5.00171C17.7989 5.06657 17.6692 5.15304 17.5179 5.23951C17.4531 5.26113 17.4098 5.30437 17.345 5.34761C17.2585 5.39084 17.172 5.43408 17.1072 5.49894C17.0423 5.54217 16.9774 5.58541 16.9126 5.60703C16.6748 5.73674 16.4586 5.88807 16.2208 6.0394C16.2208 6.0394 16.1992 6.0394 16.1992 6.06102C16.0046 6.19073 15.7884 6.32044 15.5506 6.47177L15.529 6.49339C15.529 6.49339 15.5074 6.49339 15.5074 6.51501C15.3993 6.57987 15.2912 6.66634 15.2047 6.7312C15.2047 6.7312 15.2047 6.7312 15.1831 6.7312C14.9453 6.90414 14.7075 7.07709 14.4697 7.25004C14.4697 7.25004 14.4697 7.25004 14.4481 7.27166C14.4481 7.27166 14.4481 7.27166 14.4265 7.29328C14.3832 7.31489 14.34 7.35813 14.2967 7.40137C14.0806 7.5527 13.886 7.72565 13.6698 7.87698C13.6482 7.89859 13.6266 7.8986 13.605 7.92022C13.4104 8.07155 13.2158 8.22287 12.9996 8.39582L12.978 8.41744L12.9564 8.43906C12.8483 8.52553 12.7618 8.59039 12.6537 8.67686C12.6105 8.7201 12.5673 8.76334 12.5024 8.80657C12.4159 8.87143 12.3511 8.93628 12.2646 9.02276C12.243 9.04438 12.2214 9.066 12.1781 9.08762C12.07 9.17409 11.9619 9.28218 11.8755 9.36866C11.8106 9.43351 11.7458 9.49837 11.6593 9.56322C11.616 9.60646 11.5512 9.67131 11.508 9.71455C11.3782 9.84426 11.2485 9.95236 11.1188 10.0821C10.9243 10.255 10.7297 10.4496 10.5351 10.6658C10.427 10.7739 10.2973 10.9036 10.1892 11.0333C10.0379 11.1846 9.90818 11.3359 9.77847 11.4873C9.75685 11.5089 9.75685 11.5089 9.73523 11.5305C9.71361 11.5521 9.692 11.5737 9.67038 11.617C9.56229 11.7251 9.45419 11.8548 9.3461 11.9629C9.30286 12.0061 9.25962 12.071 9.21639 12.1142C9.08668 12.2655 8.95697 12.3953 8.84887 12.5466C8.84887 12.5466 8.84887 12.5466 8.82725 12.5682C3.6388 18.6646 0.785156 26.4257 0.785156 34.4029C0.785156 42.445 3.68204 50.2493 8.93535 56.3674C9.12991 56.6052 9.32448 56.8214 9.54067 57.0592C9.60552 57.124 9.67038 57.1889 9.71361 57.2537C9.86494 57.4051 10.0163 57.578 10.1676 57.7293C10.2757 57.8374 10.3622 57.9455 10.4703 58.0536C10.4919 58.0752 10.4919 58.0752 10.5135 58.0969L10.5351 58.1185C10.7513 58.3347 10.9675 58.5508 11.2269 58.7886C11.2918 58.8535 11.3782 58.9184 11.4431 58.9832C11.4431 58.9832 11.4431 58.9832 11.4647 59.0048C11.4863 59.0264 11.5296 59.0697 11.5728 59.0913C11.789 59.2859 12.0268 59.5021 12.3078 59.7399C12.4592 59.8696 12.6105 59.9993 12.7618 60.129C12.8267 60.1939 12.8915 60.2371 12.9564 60.2803C12.9996 60.3236 13.0429 60.3668 13.1077 60.41C13.3239 60.583 13.5401 60.7775 13.7563 60.9505C13.9292 61.0802 14.1022 61.2099 14.2751 61.3396C14.3184 61.3613 14.3616 61.4045 14.4048 61.4261C14.4481 61.4693 14.4913 61.491 14.5562 61.5342C14.6859 61.6207 14.8156 61.7288 14.9453 61.8152C15.1831 61.9882 15.4209 62.1395 15.6371 62.3125C15.81 62.4422 16.0046 62.5503 16.1992 62.68C16.264 62.7232 16.3073 62.7448 16.3505 62.7881C16.4586 62.8529 16.5451 62.9178 16.6532 62.9826H16.6748C16.8477 63.0907 17.0207 63.1988 17.1936 63.3069C17.2369 63.3285 17.2585 63.3502 17.3017 63.3718C17.4747 63.4799 17.6476 63.5663 17.7989 63.6744H17.8206C17.9719 63.7609 18.1665 63.869 18.361 63.9771C18.361 63.9771 18.3826 63.9771 18.3826 63.9987C18.4043 63.9987 18.4043 64.0203 18.4259 64.0203C18.5772 64.1068 18.7285 64.1933 18.8799 64.2581H18.9015C19.2042 64.4095 19.5068 64.5608 19.8095 64.7121C19.8311 64.7337 19.8743 64.7337 19.8959 64.7554C19.9176 64.777 19.9392 64.777 19.9608 64.7986C20.2635 64.9499 20.5661 65.0796 20.8688 65.2094L21.0417 65.2958C21.2363 65.3823 21.4525 65.4688 21.647 65.5553C21.8416 65.6417 22.0362 65.7066 22.2307 65.7931H22.2524C22.4253 65.8579 22.6199 65.9228 22.7928 66.0092H22.8144C22.9442 66.0525 23.0739 66.0957 23.2036 66.1389C23.2901 66.1606 23.3549 66.2038 23.4414 66.2254C23.6576 66.2903 23.8738 66.3768 24.0899 66.4416C24.3277 66.5065 24.5656 66.5929 24.7817 66.6578C25.5168 66.874 26.2518 67.0685 26.9652 67.2415C27.1165 67.2847 27.2679 67.3064 27.4408 67.3496C27.4408 67.3496 27.4408 67.3496 27.4624 67.3496C27.5705 67.3712 27.6786 67.3928 27.7651 67.4144C27.7867 67.4144 27.83 67.4361 27.8516 67.4361L28.0029 67.4577C28.1326 67.4793 28.2407 67.5009 28.3704 67.5225C28.5866 67.5658 28.8028 67.609 28.9974 67.6306C29.1703 67.6522 29.3432 67.6955 29.5162 67.7171C29.6459 67.7387 29.7756 67.7603 29.9053 67.782C30.0134 67.8036 30.1215 67.8036 30.2296 67.8252C30.4674 67.8468 30.6836 67.8901 30.9214 67.9117C30.9863 67.9117 31.0727 67.9333 31.1376 67.9333C31.1808 67.9333 31.2024 67.9333 31.2457 67.9333C31.2673 67.9333 31.2673 67.9333 31.2889 67.9333C32.4347 68.0414 33.4724 68.0846 34.4885 68.0846C35.4829 68.0846 36.5422 68.0414 37.688 67.9333C37.688 67.9333 37.688 67.9333 37.7096 67.9333C37.7529 67.9333 37.7961 67.9333 37.8393 67.9117C37.8826 67.9117 37.9474 67.9117 37.9907 67.8901C38.0123 67.8901 38.0339 67.8901 38.0555 67.8901C38.4447 67.8468 38.8338 67.8036 39.2229 67.7387C39.2878 67.7387 39.3743 67.7171 39.4391 67.7171C39.5904 67.6955 39.7634 67.6739 39.9363 67.6306C40.1958 67.5874 40.4768 67.5442 40.7578 67.4793C40.8227 67.4577 40.8875 67.4577 40.9524 67.4361L41.1037 67.4144C41.1254 67.4144 41.1254 67.4144 41.147 67.4144C41.2551 67.3928 41.3632 67.3712 41.4929 67.3496C41.5145 67.3496 41.5145 67.3496 41.5361 67.3496C42.4008 67.1766 43.2872 66.9388 44.152 66.6794C44.1736 66.6794 44.1736 66.6794 44.1952 66.6578C44.3465 66.6146 44.4978 66.5713 44.6276 66.5281C44.714 66.5065 44.8005 66.4848 44.887 66.4416C45.1032 66.3768 45.2977 66.3119 45.5139 66.2254C45.5355 66.2254 45.5572 66.2038 45.5572 66.2038C45.7517 66.139 45.9247 66.0741 46.0976 66.0092C46.0976 66.0092 46.0976 66.0092 46.1192 66.0092C46.1625 65.9876 46.2273 65.966 46.2706 65.9444C46.5516 65.8363 46.811 65.7498 47.0705 65.6417C47.1569 65.5985 47.2434 65.5769 47.3083 65.5336C47.3083 65.5336 47.3299 65.5336 47.3299 65.512C47.4812 65.4472 47.6109 65.3823 47.7622 65.3174L48.1081 65.1661C48.2811 65.1013 48.4324 65.0148 48.6054 64.9499C48.6486 64.9283 48.7135 64.9067 48.7567 64.8851C48.8648 64.8418 48.9513 64.7986 49.0594 64.7337C49.081 64.7337 49.081 64.7121 49.1026 64.7121C49.1891 64.6689 49.2539 64.6256 49.3404 64.604C49.4269 64.5608 49.535 64.5176 49.6214 64.4743C49.7944 64.3879 49.9457 64.3014 50.1187 64.2149C50.3132 64.1068 50.4862 64.0203 50.6591 63.9122C50.8321 63.8041 51.005 63.7177 51.1564 63.6312C51.1564 63.6312 51.178 63.6312 51.178 63.6096C51.3509 63.5015 51.5239 63.415 51.7184 63.3069C51.7401 63.2853 51.7833 63.2637 51.8049 63.2637C51.9779 63.1556 52.1508 63.0475 52.3454 62.9394L52.367 62.9178C52.4535 62.8529 52.5616 62.8097 52.648 62.7448C52.6697 62.7448 52.6697 62.7232 52.6913 62.7232C52.9291 62.5719 53.1453 62.4206 53.3615 62.2692C53.5993 62.1179 53.8371 61.945 54.0532 61.772C54.2478 61.6207 54.4424 61.491 54.6369 61.3396C54.7667 61.2532 54.8964 61.1451 55.0045 61.0586C55.0693 61.0154 55.1342 60.9505 55.2206 60.9073C55.4368 60.7343 55.653 60.5614 55.8692 60.3668C55.9124 60.3236 55.9773 60.2803 56.0205 60.2371C56.0854 60.1939 56.1502 60.129 56.2151 60.0858C56.3664 59.956 56.5178 59.8263 56.6691 59.6966C57.1015 59.3291 57.4257 59.0265 57.7284 58.7454C57.9878 58.5076 58.204 58.2698 58.4202 58.0536L58.4418 58.032C58.4634 58.0104 58.4634 58.0104 58.485 57.9888C58.5931 57.8807 58.7012 57.7726 58.7877 57.6645C59.0039 57.4483 59.1985 57.2105 59.4146 56.9943C59.6092 56.7781 59.8254 56.5403 60.02 56.3241C65.2733 50.2061 68.1702 42.4018 68.1702 34.3597C68.1918 26.3824 65.3381 18.6214 60.1497 12.525ZM11.5512 12.352C11.8539 12.0277 12.1565 11.7467 12.4375 11.4657L12.4592 11.444C12.6754 11.2278 12.9132 11.0117 13.1293 10.7955L13.151 10.7739C13.3671 10.5793 13.605 10.3631 13.8211 10.1902C13.8428 10.1685 13.8644 10.1469 13.886 10.1469L13.9076 10.1253C13.9941 10.0605 14.0589 9.99559 14.1454 9.93074C14.167 9.90912 14.1887 9.90912 14.2103 9.8875C14.4048 9.73617 14.5994 9.58484 14.7724 9.43351C15.0318 9.23895 15.2912 9.02276 15.5506 8.82819C15.5506 8.82819 15.5722 8.82819 15.5722 8.80657C15.7884 8.63363 16.0262 8.48229 16.264 8.30935L16.2857 8.28773C16.3721 8.22287 16.4586 8.15802 16.5451 8.11478C16.5667 8.11478 16.5667 8.09316 16.5883 8.09316C16.8045 7.94183 17.0207 7.81212 17.2369 7.66079C17.4963 7.48784 17.7773 7.31489 18.0584 7.14195C18.3178 6.99062 18.5556 6.83929 18.815 6.68796C18.9447 6.60148 19.0961 6.53663 19.2258 6.45015C19.2906 6.40692 19.3555 6.3853 19.4203 6.34206C19.5068 6.29882 19.5717 6.25559 19.6581 6.21235C19.8311 6.12587 20.004 6.0394 20.177 5.95293C20.2418 5.93131 20.2851 5.88807 20.3499 5.86645C20.4796 5.8016 20.5877 5.75836 20.7175 5.6935C20.7607 5.67189 20.8255 5.65027 20.8688 5.62865C21.1282 5.49894 21.3876 5.39084 21.647 5.28275L21.7984 5.2179L21.8849 5.17466C22.0362 5.1098 22.1659 5.04495 22.3172 4.98009C22.5118 4.89362 22.6847 4.82876 22.8793 4.76391C22.9874 4.72067 23.0955 4.67743 23.2036 4.63419C23.2901 4.59096 23.3765 4.56934 23.463 4.5261C23.5711 4.48286 23.6792 4.46125 23.7657 4.41801C24.0467 4.30992 24.3494 4.22344 24.652 4.11535C24.8466 4.05049 25.0412 3.98564 25.2573 3.92079H25.279H25.3006C25.6249 3.81269 25.9708 3.72622 26.295 3.63974C26.3383 3.61812 26.4031 3.61813 26.4464 3.59651C26.7706 3.51003 27.0949 3.42356 27.4192 3.3587C27.4408 3.3587 27.4841 3.33708 27.5057 3.33708L27.4841 3.3587C27.3111 3.51003 27.1165 3.66136 26.9436 3.81269L26.922 3.83431C26.749 3.98564 26.5977 4.13697 26.4247 4.30992C26.3599 4.37477 26.3167 4.41801 26.2518 4.48287C26.1437 4.61258 26.014 4.72067 25.9059 4.85038C25.841 4.91524 25.7762 4.98009 25.7113 5.06657C25.6032 5.17466 25.4952 5.30437 25.3871 5.43408C25.3222 5.52056 25.2573 5.58541 25.1925 5.67188C25.0844 5.8016 24.9979 5.90969 24.8898 6.0394C24.825 6.12587 24.7601 6.19073 24.6953 6.2772C24.5872 6.40692 24.5007 6.53663 24.3926 6.66634C24.3277 6.75281 24.2629 6.83929 24.2197 6.90414C24.1116 7.05547 24.0035 7.2068 23.8954 7.35813C23.8521 7.42299 23.7873 7.50946 23.744 7.57432C23.5927 7.7905 23.463 8.00669 23.3117 8.22287C23.2901 8.24449 23.2901 8.26611 23.2684 8.26611C23.1171 8.50391 22.9658 8.76334 22.8144 9.00114C22.7712 9.066 22.728 9.15247 22.6847 9.21733C22.5766 9.39028 22.4902 9.58484 22.3821 9.75779C22.3388 9.84427 22.274 9.95236 22.2307 10.0604C22.1443 10.2334 22.0578 10.3847 21.9713 10.5577C21.9065 10.6658 21.8632 10.7739 21.7984 10.882C21.7119 11.0549 21.6254 11.2279 21.539 11.4008C21.4957 11.5089 21.4309 11.617 21.3876 11.7467C21.3012 11.9196 21.2147 12.0926 21.1498 12.2872C21.1066 12.3953 21.0417 12.5033 20.9985 12.6331C20.912 12.8276 20.8255 13.0222 20.7607 13.2168C20.7175 13.3249 20.6742 13.4113 20.631 13.5194C20.5229 13.7572 20.4364 14.0166 20.3283 14.2761C20.3067 14.3409 20.2851 14.3842 20.2635 14.449C20.1554 14.7733 20.0257 15.076 19.9176 15.4002V15.4218C19.7879 15.4002 19.6798 15.3786 19.5501 15.3354C19.3987 15.2921 19.2474 15.2705 19.0961 15.2273C18.7934 15.1624 18.4907 15.076 18.1881 15.0111C18.0584 14.9679 17.9287 14.9462 17.7989 14.903C17.3666 14.7949 16.9342 14.6652 16.5235 14.5571H16.5018C16.0911 14.449 15.6803 14.3193 15.2696 14.1896C15.1399 14.1464 15.0102 14.1031 14.8804 14.0599C14.5994 13.9734 14.2967 13.8653 14.0157 13.7788C13.8644 13.7356 13.7347 13.6924 13.5833 13.6275C13.3023 13.5194 13.0213 13.4329 12.7402 13.3249C12.6105 13.2816 12.5024 13.2384 12.3727 13.1951C11.9836 13.0438 11.5728 12.8925 11.1837 12.7411C11.2918 12.6331 11.4215 12.5033 11.5512 12.352ZM9.80009 14.3193C9.9298 14.3625 10.0595 14.4274 10.1892 14.4706C10.3406 14.5355 10.5135 14.6003 10.6648 14.6652C10.9243 14.7733 11.2053 14.8814 11.4863 14.9679C11.6377 15.0327 11.789 15.076 11.9403 15.1408C12.2646 15.2705 12.6105 15.3786 12.9348 15.4867C13.0213 15.5083 13.1293 15.5516 13.2158 15.5948C13.6482 15.7461 14.0806 15.8758 14.5129 16.0055C14.6426 16.0488 14.7724 16.0704 14.8804 16.1136C15.2047 16.2001 15.5074 16.3082 15.8317 16.3947C16.0046 16.4379 16.1559 16.4812 16.3289 16.5244C16.6099 16.6109 16.891 16.6757 17.172 16.7622C17.345 16.8054 17.5179 16.8487 17.7125 16.8919C17.9935 16.9568 18.2746 17.0432 18.5772 17.1081C18.7502 17.1513 18.9231 17.1946 19.0961 17.2378C19.1825 17.2594 19.2474 17.281 19.3339 17.3027C19.3122 17.3675 19.2906 17.454 19.269 17.5188C19.2258 17.6918 19.1825 17.8431 19.1177 18.0161C19.0312 18.2971 18.9663 18.5782 18.8799 18.8592C18.8366 19.0321 18.7934 19.2051 18.7502 19.378C18.6853 19.6807 18.5988 19.9617 18.534 20.2644C18.4907 20.4373 18.4475 20.5887 18.4259 20.7616C18.3394 21.1075 18.2746 21.4534 18.1881 21.8209C18.1665 21.929 18.1448 22.0371 18.1232 22.1668C18.0368 22.6424 17.9503 23.0964 17.8638 23.572C17.8422 23.6801 17.8206 23.7882 17.7989 23.8963C17.7341 24.2638 17.6692 24.6313 17.626 24.9989C17.6044 25.1718 17.5828 25.3231 17.5611 25.4961C17.5179 25.8204 17.4747 26.123 17.4314 26.4473C17.4098 26.6203 17.3882 26.8148 17.3666 26.9878C17.345 27.1175 17.3233 27.2472 17.3233 27.3985C17.3017 27.3985 17.3017 27.3985 17.2801 27.3985C17.2369 27.3985 17.1936 27.3985 17.1504 27.4201C17.0855 27.4201 17.0207 27.4418 16.9342 27.4418C16.891 27.4418 16.8477 27.4634 16.8045 27.4634C16.7396 27.4634 16.6748 27.485 16.6099 27.5066C16.5667 27.5066 16.5235 27.5282 16.4802 27.5282C16.4154 27.5499 16.3505 27.5499 16.2857 27.5715C16.2424 27.5715 16.1992 27.5931 16.1559 27.5931C16.0911 27.6147 16.0262 27.6363 15.9614 27.6363C15.9181 27.6363 15.8965 27.6579 15.8533 27.6579C15.7884 27.6796 15.7019 27.7012 15.6371 27.7228C15.6155 27.7228 15.5722 27.7444 15.5506 27.7444C15.4425 27.7877 15.3561 27.8093 15.248 27.8525C15.2263 27.8525 15.2263 27.8741 15.2047 27.8741C15.1182 27.9174 15.0318 27.939 14.9453 27.9822C14.9021 28.0038 14.8804 28.0255 14.8372 28.0255C14.7724 28.0471 14.7291 28.0903 14.6643 28.1119C14.621 28.1336 14.5778 28.1552 14.5562 28.1768C14.5129 28.1984 14.4481 28.2416 14.4048 28.2633C14.3616 28.2849 14.3184 28.3065 14.2751 28.3281C14.2319 28.3497 14.1887 28.393 14.1238 28.4146C14.0806 28.4362 14.0373 28.4578 13.9941 28.5011C13.9508 28.5227 13.9076 28.5659 13.8644 28.5875C13.8211 28.6092 13.7779 28.6524 13.7347 28.674C13.6914 28.6956 13.6482 28.7389 13.6266 28.7605C13.5833 28.8037 13.5401 28.8253 13.4969 28.8686C13.4536 28.8902 13.432 28.9334 13.3888 28.9551C13.3455 28.9983 13.3023 29.0199 13.2591 29.0631C13.2374 29.0631 13.2374 29.0848 13.2158 29.0848C13.0861 29.1929 12.978 29.301 12.8699 29.4307C12.8483 29.4523 12.8483 29.4523 12.8267 29.4739C12.7834 29.5171 12.7186 29.582 12.6754 29.6252C12.6537 29.6469 12.6321 29.6685 12.6105 29.6901C12.5673 29.7333 12.524 29.7982 12.4808 29.863C12.4592 29.8847 12.4376 29.9063 12.4159 29.9279C12.3727 29.9927 12.3295 30.036 12.2862 30.1008C12.2646 30.1225 12.243 30.1441 12.243 30.1657C12.1997 30.2306 12.1565 30.2738 12.1133 30.3386C12.0917 30.3603 12.0917 30.3819 12.07 30.4035C12.0268 30.4684 11.9836 30.5332 11.9403 30.5981C11.9403 30.6197 11.9187 30.6197 11.9187 30.6413C11.6809 31.0304 11.4647 31.4628 11.2918 31.9168C11.2918 31.9168 11.2918 31.9168 11.2918 31.9384C11.2702 32.0249 11.2269 32.0897 11.2053 32.1762C11.2053 32.1978 11.1837 32.2195 11.1837 32.2195C11.1621 32.3059 11.1404 32.3708 11.1188 32.4573C11.1188 32.4789 11.0972 32.5005 11.0972 32.5221C11.0756 32.587 11.054 32.6734 11.0323 32.7383C11.0323 32.7599 11.0107 32.8032 11.0107 32.8248C10.9891 32.8896 10.9891 32.9761 10.9675 33.041C10.9675 33.0626 10.9459 33.1058 10.9459 33.1274C10.9243 33.1923 10.9243 33.2788 10.9026 33.3436V33.3652H2.62273C2.90377 26.4473 5.38991 19.7239 9.80009 14.3193ZM22.9442 34.1219V34.1651C22.9442 34.23 22.9225 34.3165 22.9225 34.3813C22.9225 37.0836 20.8255 39.3103 18.1232 39.44C18.1016 39.44 18.08 39.44 18.08 39.44C18.0151 39.44 17.9287 39.44 17.8638 39.44C17.8206 39.44 17.7557 39.44 17.7125 39.44C17.6909 39.44 17.6476 39.44 17.626 39.44C17.5611 39.44 17.5179 39.44 17.4531 39.4184C17.4314 39.4184 17.4098 39.4184 17.3666 39.4184C17.3017 39.4184 17.2369 39.3968 17.172 39.3968C17.1504 39.3968 17.1288 39.3968 17.1072 39.3968C17.0423 39.3968 16.9774 39.3752 16.9126 39.3536C16.891 39.3536 16.891 39.3536 16.8694 39.3536C16.8045 39.332 16.7396 39.332 16.6532 39.3103H16.6315C16.5667 39.2887 16.4802 39.2671 16.4154 39.2455C16.4154 39.2455 16.4154 39.2455 16.3937 39.2455C16.3289 39.2239 16.2424 39.2022 16.1776 39.1806C15.0534 38.7915 14.1022 37.9916 13.4969 36.9755C13.4536 36.9107 13.4104 36.8458 13.3888 36.781C13.3888 36.781 13.3888 36.781 13.3888 36.7594C13.3455 36.6945 13.3239 36.6296 13.2807 36.5648C13.2807 36.5648 13.2807 36.5432 13.2591 36.5432C13.2374 36.4783 13.1942 36.4135 13.1726 36.3486C13.1726 36.327 13.1726 36.327 13.151 36.3054C13.1293 36.2405 13.1077 36.1757 13.0861 36.1108C13.0861 36.0892 13.0645 36.0676 13.0645 36.0676C13.0429 36.0027 13.0213 35.9595 12.9996 35.8946C12.9996 35.873 12.978 35.8514 12.978 35.8298C12.9564 35.7649 12.9564 35.7217 12.9348 35.6568C12.9348 35.6352 12.9132 35.5919 12.9132 35.5703C12.8915 35.5271 12.8915 35.4622 12.8699 35.419C12.8699 35.3758 12.8483 35.3541 12.8483 35.3109C12.8483 35.2677 12.8267 35.2244 12.8267 35.1812C12.8267 35.138 12.8051 35.0947 12.8051 35.0515C12.8051 35.0083 12.8051 34.9866 12.7834 34.9434C12.7834 34.8569 12.7618 34.7704 12.7618 34.684V34.6407C12.7618 34.5759 12.7834 34.4894 12.7834 34.4246C12.7834 31.7222 14.9021 29.4955 17.6044 29.3658H17.626C17.6909 29.3658 17.7557 29.3658 17.8422 29.3874C17.9287 29.3874 18.0151 29.409 18.08 29.409C20.7391 29.4523 22.8145 31.506 22.9442 34.1219ZM10.6864 54.0974C10.5351 54.1623 10.3622 54.2488 10.2108 54.3136C10.1027 54.3568 9.99466 54.4217 9.86494 54.4649C5.41152 49.0387 2.88215 42.2937 2.66597 35.3109H10.9243V35.3325C10.9243 35.3758 10.9459 35.419 10.9459 35.4406C10.9675 35.5055 10.9675 35.5703 10.9891 35.6568C10.9891 35.7 11.0107 35.7433 11.0107 35.7865C11.0323 35.8514 11.0323 35.9162 11.054 35.9811C11.054 36.0243 11.0756 36.0676 11.0972 36.1108C11.1188 36.1757 11.1188 36.2405 11.1404 36.2837C11.1621 36.327 11.1621 36.3702 11.1837 36.4135C11.2053 36.4783 11.2269 36.5432 11.2485 36.5864C11.2701 36.6296 11.2702 36.6729 11.2918 36.7161C11.3134 36.781 11.335 36.8458 11.3566 36.9107C11.3782 36.9539 11.3782 36.9755 11.3999 37.0188C11.4215 37.0836 11.4647 37.1701 11.4863 37.235C11.508 37.2566 11.508 37.2782 11.5296 37.3214C11.616 37.516 11.7241 37.7106 11.8322 37.8835C11.8539 37.9051 11.8539 37.9268 11.8755 37.9484C11.9187 38.0132 11.9619 38.0781 12.0052 38.1429C12.0268 38.1646 12.0484 38.2078 12.07 38.2294C12.1133 38.2943 12.1565 38.3375 12.1781 38.4024C12.1997 38.424 12.2214 38.4672 12.243 38.4888C12.2862 38.5537 12.3295 38.5969 12.3727 38.6618C12.3943 38.6834 12.4159 38.7266 12.4375 38.7483C12.4808 38.7915 12.524 38.8563 12.5673 38.8996C12.5889 38.9212 12.6105 38.9428 12.6321 38.9861C12.6754 39.0509 12.7402 39.0942 12.7834 39.1374C12.8051 39.159 12.8267 39.1806 12.8483 39.2022C12.9132 39.2671 12.978 39.332 13.0213 39.3752C13.0429 39.3968 13.0429 39.3968 13.0645 39.4184C13.2158 39.5698 13.3671 39.6995 13.5401 39.8292C13.5617 39.8508 13.5617 39.8508 13.5833 39.8724C13.6482 39.9157 13.713 39.9805 13.7779 40.0238C13.7995 40.0454 13.8211 40.067 13.8428 40.067C13.9076 40.1102 13.9725 40.1535 14.0373 40.1967C14.0589 40.2183 14.1022 40.2399 14.1238 40.2616C14.1887 40.3048 14.2535 40.348 14.2967 40.3696C14.3184 40.3913 14.3616 40.4129 14.3832 40.4129C14.4481 40.4561 14.5129 40.4777 14.5778 40.521C14.5994 40.5426 14.6426 40.5426 14.6643 40.5642C14.7291 40.6075 14.794 40.6291 14.8588 40.6723C14.8804 40.6939 14.9237 40.6939 14.9453 40.7155C15.0318 40.7588 15.0966 40.7804 15.1831 40.8236C15.2047 40.8236 15.2263 40.8453 15.2263 40.8453C15.4209 40.9317 15.6371 40.9966 15.8317 41.0614C15.8533 41.0614 15.8749 41.0831 15.8965 41.0831C15.983 41.1047 16.0478 41.1263 16.1343 41.1479C16.1776 41.1479 16.1992 41.1695 16.2424 41.1695C16.3073 41.1912 16.3937 41.2128 16.4586 41.2128C16.5018 41.2128 16.5235 41.2344 16.5667 41.2344C16.6315 41.256 16.6964 41.256 16.7829 41.2776C16.8261 41.2776 16.8694 41.2992 16.9126 41.2992C16.9774 41.2992 17.0423 41.3209 17.1288 41.3209C17.172 41.3209 17.2152 41.3209 17.2585 41.3425C17.2801 41.3425 17.3017 41.3425 17.3233 41.3425C17.345 41.4722 17.345 41.5803 17.3666 41.71C17.3882 41.9046 17.4098 42.0775 17.4314 42.2721C17.4747 42.5747 17.5179 42.8774 17.5395 43.1584C17.5611 43.3314 17.5828 43.5043 17.6044 43.6773C17.6476 44.0232 17.7125 44.3691 17.7773 44.715C17.799 44.8231 17.8206 44.9528 17.8422 45.0609C17.9287 45.5149 18.0151 45.9689 18.1016 46.4228C18.1232 46.5309 18.1448 46.639 18.1665 46.7471C18.2313 47.093 18.3178 47.4389 18.3826 47.7632C18.4259 47.9145 18.4475 48.0658 18.4907 48.2388C18.5556 48.5198 18.6205 48.8225 18.7069 49.1035C18.7502 49.2765 18.7934 49.4278 18.8366 49.6008C18.9015 49.8818 18.988 50.1628 19.0744 50.4439C19.1177 50.5952 19.1609 50.7465 19.2042 50.8979C19.2258 50.9627 19.2474 51.0492 19.269 51.1141C19.1825 51.1357 19.0961 51.1573 19.0096 51.1789C18.8366 51.2222 18.6637 51.2654 18.5124 51.3086C18.2313 51.3951 17.9287 51.46 17.6476 51.5464C17.4747 51.5897 17.3017 51.6545 17.1288 51.6978C16.8477 51.7842 16.5451 51.8707 16.264 51.9788C16.1127 52.022 15.9614 52.0869 15.7884 52.1301C15.4641 52.2382 15.1183 52.3463 14.794 52.476C14.6859 52.5193 14.5778 52.5409 14.4913 52.5841C14.0589 52.7355 13.6482 52.8868 13.2158 53.0597C13.1077 53.103 12.9996 53.1462 12.8699 53.1894C12.5673 53.3192 12.2646 53.4272 11.9619 53.557C11.8106 53.6218 11.6593 53.6867 11.508 53.7515C11.2053 53.8812 10.9459 53.9893 10.6864 54.0974ZM27.3976 65.3607C27.0949 65.2958 26.7706 65.2094 26.468 65.1229C26.4247 65.1013 26.3599 65.1013 26.3167 65.0796C25.9924 64.9932 25.6681 64.9067 25.3222 64.7986C25.2357 64.777 25.1709 64.7554 25.0844 64.7337C24.9331 64.6905 24.8034 64.6473 24.652 64.604C24.5439 64.5824 24.4575 64.5392 24.3494 64.4959C24.2413 64.4527 24.1332 64.4311 24.0251 64.3878C23.917 64.3446 23.8305 64.323 23.744 64.2798C23.6576 64.2365 23.5495 64.2149 23.463 64.1717C23.3117 64.1068 23.1603 64.0636 23.009 63.9987C22.9658 63.9771 22.9442 63.9771 22.9009 63.9555C22.7496 63.8906 22.5766 63.8258 22.4253 63.7609C22.4037 63.7609 22.3821 63.7393 22.3605 63.7393C22.1659 63.6528 21.9929 63.588 21.7984 63.5015L21.6038 63.415C21.3012 63.2853 20.9769 63.134 20.6742 62.9826C20.6526 62.961 20.6094 62.961 20.5877 62.9394C20.3067 62.8097 20.0257 62.6584 19.7446 62.507H19.723C19.5933 62.4422 19.442 62.3557 19.3122 62.2909C19.2906 62.2692 19.269 62.2692 19.2474 62.2476C19.0744 62.1611 18.9015 62.053 18.7285 61.9666C18.7285 61.9666 18.7285 61.9666 18.7069 61.9666C18.6853 61.945 18.6421 61.9233 18.6205 61.9233C18.4691 61.8369 18.3178 61.7504 18.1665 61.6423C18.1448 61.6423 18.1448 61.6207 18.1232 61.6207C17.9503 61.5126 17.7989 61.4261 17.626 61.318C17.5611 61.2748 17.4747 61.2315 17.4098 61.1667C17.3882 61.1451 17.345 61.1234 17.3233 61.1018C17.0207 60.9073 16.718 60.6911 16.4154 60.4965C16.2857 60.41 16.1559 60.3236 16.0478 60.2371C16.0262 60.2155 16.0046 60.1938 15.9614 60.1722C15.81 60.0641 15.6803 59.956 15.529 59.8696C15.3128 59.6966 15.0966 59.5453 14.8804 59.3723C14.6859 59.221 14.4697 59.0481 14.2751 58.8751C14.2319 58.8319 14.167 58.7886 14.1238 58.7454C13.9292 58.5941 13.7563 58.4427 13.5833 58.2698C13.5617 58.2482 13.5185 58.2266 13.4969 58.2049C13.4104 58.1401 13.3455 58.0752 13.2591 58.0104C13.2158 57.9671 13.1726 57.9455 13.1293 57.9023C13.0861 57.859 13.0429 57.8374 13.0213 57.7942C12.9564 57.751 12.9132 57.6861 12.8483 57.6429C12.8267 57.6212 12.8051 57.5996 12.7834 57.578C12.7186 57.5131 12.6537 57.4483 12.5889 57.3834C12.5673 57.3618 12.5673 57.3618 12.5456 57.3402C12.3295 57.124 12.1133 56.9078 11.8971 56.6916C11.8755 56.67 11.8539 56.6484 11.8322 56.6268C11.7458 56.5403 11.6593 56.4538 11.5728 56.3674L11.5512 56.3458C11.5296 56.3241 11.4863 56.2809 11.4647 56.2377C11.3999 56.1512 11.3134 56.0863 11.2485 55.9999C11.2918 55.9782 11.3134 55.9566 11.3566 55.9566C11.4647 55.9134 11.5944 55.8485 11.7025 55.8053C11.9619 55.6972 12.243 55.5675 12.5024 55.4594C12.6321 55.3945 12.7834 55.3513 12.9348 55.2864C13.1942 55.1784 13.4536 55.0703 13.713 54.9622C13.8428 54.8973 13.9941 54.8541 14.1238 54.7892C14.4265 54.6811 14.7075 54.573 15.0102 54.4649C15.1183 54.4217 15.2263 54.3785 15.3344 54.3568C15.7452 54.2055 16.1343 54.0758 16.5451 53.9461C16.6315 53.9245 16.7396 53.8812 16.8261 53.8596C17.1504 53.7515 17.4747 53.6651 17.7989 53.557C17.9503 53.5137 18.1016 53.4705 18.2313 53.4272C18.5124 53.3408 18.7934 53.2759 19.0744 53.1894C19.2258 53.1462 19.3771 53.103 19.5501 53.0597C19.6581 53.0381 19.7446 53.0165 19.8527 52.9733C19.8527 52.9949 19.8527 52.9949 19.8743 52.9949C19.9824 53.3192 20.0905 53.6434 20.2202 53.9461C20.2635 54.0542 20.3067 54.1623 20.3499 54.2704C20.4364 54.4866 20.5013 54.7027 20.5877 54.8973C20.631 55.027 20.6958 55.1567 20.7391 55.2648C20.8039 55.4378 20.8904 55.6323 20.9553 55.8053C21.0201 55.935 21.0634 56.0647 21.1282 56.1944C21.1931 56.3674 21.2795 56.5403 21.366 56.7133C21.4309 56.843 21.4741 56.9727 21.539 57.0808C21.6254 57.2537 21.6903 57.4051 21.7768 57.578C21.8416 57.6861 21.8849 57.8158 21.9497 57.9239C22.0362 58.0969 22.1227 58.2698 22.2091 58.4427C22.2524 58.5508 22.3172 58.6589 22.3605 58.7454C22.4686 58.94 22.5766 59.1562 22.6847 59.3507C22.728 59.4156 22.7496 59.4804 22.7928 59.5237C22.9442 59.7831 23.0955 60.0209 23.2468 60.2803C23.2901 60.3452 23.3333 60.4317 23.3765 60.4965C23.4846 60.6695 23.5927 60.8424 23.7008 61.0154C23.7657 61.1018 23.8089 61.1883 23.8738 61.2748C23.9819 61.4261 24.0683 61.5558 24.1764 61.7071C24.2413 61.7936 24.3061 61.8801 24.371 61.9666C24.4791 62.0963 24.5656 62.226 24.6736 62.3557C24.7385 62.4422 24.8034 62.5287 24.8682 62.6151C24.9763 62.7448 25.0844 62.8745 25.1709 63.0043C25.2357 63.0907 25.3006 63.1556 25.3654 63.2421C25.4735 63.3718 25.5816 63.5015 25.7113 63.6312C25.7762 63.6961 25.8194 63.7609 25.8843 63.8258C26.0356 63.9771 26.1869 64.15 26.3383 64.3014C26.3599 64.323 26.3815 64.3446 26.4031 64.3662C26.5761 64.5392 26.749 64.7121 26.9436 64.8851C26.9868 64.9283 27.0517 64.9716 27.0949 65.0148C27.2246 65.1229 27.3543 65.2526 27.4841 65.3607C27.5057 65.3823 27.5273 65.4039 27.5489 65.4039C27.4624 65.3607 27.4408 65.3607 27.3976 65.3607ZM33.494 66.0957C33.4508 66.0957 33.4292 66.0957 33.4075 66.0741C33.2778 66.0525 33.1481 66.0309 33.04 66.0092C32.9752 65.9876 32.9319 65.9876 32.8671 65.966C32.7806 65.9444 32.6725 65.9228 32.586 65.9011C32.5212 65.8795 32.4563 65.8579 32.3915 65.8579C32.305 65.8363 32.2185 65.8147 32.132 65.7714C32.0672 65.7498 32.0023 65.7282 31.9375 65.7066C31.851 65.685 31.7645 65.6417 31.6781 65.6201C31.6132 65.5985 31.5483 65.5769 31.4835 65.5336C31.397 65.4904 31.3105 65.4688 31.2241 65.4255C31.1592 65.4039 31.0944 65.3607 31.0295 65.3391C30.943 65.2958 30.8565 65.2526 30.7701 65.2094C30.7052 65.1877 30.6404 65.1445 30.5755 65.1013C30.489 65.058 30.4026 64.9932 30.3161 64.9499C30.2512 64.9067 30.208 64.8851 30.1431 64.8418C30.035 64.777 29.9486 64.7121 29.8621 64.6689C29.8189 64.6473 29.754 64.604 29.7108 64.5824C29.5594 64.4959 29.4297 64.3878 29.2784 64.2798C29.2568 64.2798 29.2568 64.2581 29.2352 64.2365C29.1054 64.15 28.9757 64.042 28.846 63.9339C28.8028 63.8906 28.7379 63.8474 28.6947 63.8041C28.6082 63.7177 28.5001 63.6528 28.4137 63.5663C28.3488 63.5231 28.3056 63.4582 28.2407 63.415C28.1542 63.3285 28.0678 63.2637 27.9813 63.1772C27.9164 63.1124 27.8732 63.0691 27.8083 63.0043C27.7219 62.9178 27.657 62.8529 27.5705 62.7665C27.5057 62.7016 27.4624 62.6367 27.3976 62.5935C27.3111 62.507 27.2463 62.4206 27.1598 62.3341C27.0949 62.2692 27.0517 62.2044 26.9868 62.1395C26.9004 62.053 26.8355 61.9666 26.749 61.8801C26.6842 61.8152 26.6409 61.7504 26.5761 61.6855C26.4896 61.5991 26.4247 61.491 26.3383 61.3829C26.295 61.318 26.2302 61.2532 26.1869 61.1883C26.1005 61.0802 26.014 60.9721 25.9275 60.8424C25.8843 60.7775 25.841 60.7343 25.7978 60.6695C25.6681 60.4965 25.56 60.3452 25.4519 60.1722C25.4519 60.1506 25.4303 60.1506 25.4303 60.129C25.3006 59.956 25.1925 59.7615 25.0628 59.5669C25.0195 59.5021 24.9763 59.4372 24.9331 59.3723C24.8466 59.2426 24.7817 59.1129 24.6953 58.9832C24.652 58.8967 24.6088 58.8319 24.5439 58.7454C24.4791 58.6157 24.3926 58.5076 24.3277 58.3779C24.2845 58.2914 24.2197 58.2049 24.1764 58.1185C24.1116 57.9888 24.0467 57.8807 23.9819 57.751C23.9386 57.6645 23.8738 57.5564 23.8305 57.4699C23.7657 57.3402 23.7008 57.2321 23.636 57.1024C23.5927 56.9943 23.5279 56.9078 23.4846 56.7997C23.4198 56.67 23.3549 56.5403 23.2901 56.4106C23.2468 56.3025 23.2036 56.216 23.1387 56.1079C23.0739 55.9782 23.009 55.8485 22.9658 55.6972C22.9225 55.5891 22.8793 55.5026 22.8361 55.3945C22.7712 55.2432 22.7064 55.0919 22.6415 54.9622C22.5983 54.8757 22.555 54.7676 22.5118 54.6811C22.4253 54.4866 22.3605 54.3136 22.2956 54.119C22.274 54.0542 22.2524 53.9893 22.2307 53.9245C22.1443 53.6867 22.0362 53.4272 21.9497 53.1678C21.9065 53.0597 21.8849 52.9733 21.8416 52.8652C21.7984 52.7355 21.7551 52.5841 21.6903 52.4544C21.7335 52.4544 21.7768 52.4328 21.82 52.4328C22.2308 52.3463 22.6415 52.2598 23.0523 52.1734C23.0955 52.1734 23.1171 52.1518 23.1603 52.1518C23.5927 52.0653 24.0035 52.0004 24.4358 51.914C24.5223 51.8923 24.6088 51.8923 24.6953 51.8707C25.106 51.8059 25.5384 51.741 25.9491 51.6761C26.0356 51.6545 26.1221 51.6545 26.2086 51.6329C26.6409 51.568 27.0733 51.5032 27.5057 51.46C27.5273 51.46 27.5705 51.46 27.5921 51.46C28.0029 51.4167 28.4353 51.3735 28.8676 51.3302C28.9325 51.3302 29.019 51.3086 29.0838 51.3086C29.5162 51.2654 29.9486 51.2438 30.3593 51.2005C30.4458 51.2005 30.5323 51.1789 30.6187 51.1789C31.0511 51.1573 31.4835 51.1357 31.9159 51.1141C31.9807 51.1141 32.024 51.1141 32.0888 51.1141C32.5212 51.0924 32.9319 51.0924 33.3643 51.0708C33.3859 51.0708 33.4292 51.0708 33.4508 51.0708V66.0957H33.494ZM33.494 49.1684C33.4724 49.1684 33.4508 49.1684 33.4292 49.1684C32.9752 49.1684 32.4996 49.19 32.0456 49.2116C31.9807 49.2116 31.9375 49.2116 31.8726 49.2116C31.4186 49.2333 30.9646 49.2549 30.5107 49.2765C30.4242 49.2765 30.3377 49.2981 30.2512 49.2981C29.7972 49.3197 29.3433 49.363 28.8893 49.4062C28.8244 49.4062 28.7379 49.4278 28.6731 49.4278C28.1975 49.4711 27.7435 49.5143 27.2679 49.5791C27.2463 49.5791 27.2463 49.5791 27.2246 49.5791C26.7706 49.644 26.295 49.6872 25.841 49.7521C25.7762 49.7521 25.7113 49.7737 25.6249 49.7737C25.1709 49.8386 24.7385 49.9034 24.2845 49.9899C24.198 50.0115 24.1116 50.0115 24.0251 50.0331C23.5711 50.1196 23.1387 50.1845 22.7064 50.2709C22.6415 50.2926 22.5766 50.2926 22.5118 50.3142C22.0578 50.4007 21.6038 50.5087 21.1498 50.5952H21.1282C21.1066 50.5087 21.085 50.4223 21.0417 50.3358C20.9985 50.1845 20.9553 50.0115 20.912 49.8602C20.8472 49.6008 20.7607 49.3413 20.6958 49.0819C20.6526 48.9306 20.6094 48.7576 20.5661 48.6063C20.5013 48.3253 20.4364 48.0442 20.3716 47.7632C20.3283 47.6119 20.3067 47.4821 20.2635 47.3308C20.177 46.9417 20.0905 46.5309 20.004 46.1202C20.004 46.0986 19.9824 46.0553 19.9824 46.0337C19.8959 45.6013 19.8095 45.169 19.7446 44.715C19.723 44.5636 19.7014 44.4339 19.6798 44.2826C19.6365 43.9799 19.5717 43.6773 19.5284 43.3746C19.5068 43.2017 19.4852 43.0503 19.4636 42.8774C19.4203 42.5964 19.3771 42.2937 19.3555 42.0127C19.3339 41.8397 19.3122 41.6668 19.2906 41.4938C19.269 41.3857 19.269 41.2992 19.269 41.1912C19.4203 41.1695 19.5933 41.1263 19.7446 41.0831C19.7662 41.0831 19.8095 41.0614 19.8311 41.0614C19.9824 41.0182 20.1338 40.975 20.2851 40.9101C20.3067 40.9101 20.3283 40.8885 20.3499 40.8885C20.5013 40.8236 20.631 40.7804 20.7823 40.7155C20.8039 40.7155 20.8255 40.6939 20.8472 40.6939C20.9985 40.6291 21.1282 40.5426 21.2795 40.4777C21.3012 40.4561 21.3228 40.4561 21.3444 40.4345C21.4957 40.348 21.6254 40.2616 21.7551 40.1751C21.8849 40.0886 22.0362 39.9805 22.1659 39.894C22.1875 39.894 22.1875 39.8724 22.2091 39.8724C22.3388 39.7643 22.4686 39.6562 22.5766 39.5481C22.5983 39.5265 22.5983 39.5265 22.6199 39.5049C22.8793 39.2671 23.0955 39.0293 23.3117 38.7699L23.3333 38.7483C23.4414 38.6185 23.5495 38.4672 23.636 38.3375C23.636 38.3375 23.636 38.3375 23.636 38.3159C23.8305 38.0348 24.0035 37.7322 24.1548 37.4079C24.1548 37.4079 24.1548 37.4079 24.1548 37.3863C24.3926 36.9107 24.5656 36.3918 24.6736 35.873C24.6736 35.8514 24.6736 35.8514 24.6736 35.8298C24.7169 35.6568 24.7385 35.4839 24.7601 35.3109H33.4508V49.1684H33.494ZM33.494 33.3869H24.825C24.8034 33.2139 24.7817 33.0626 24.7385 32.8896C24.7385 32.868 24.7169 32.8248 24.7169 32.8032C24.6736 32.6518 24.652 32.5005 24.5872 32.3492C24.5872 32.3276 24.5656 32.2843 24.5656 32.2627C24.5223 32.1114 24.4575 31.96 24.4142 31.8087C24.3494 31.6574 24.2845 31.506 24.2197 31.3763C24.198 31.3547 24.198 31.3331 24.1764 31.2899C24.1116 31.1602 24.0251 31.0088 23.9602 30.8791C23.9386 30.8575 23.9386 30.8143 23.917 30.7926C23.8305 30.6629 23.744 30.5332 23.6576 30.4035C23.6576 30.3819 23.636 30.3819 23.636 30.3603C23.5495 30.2305 23.463 30.1225 23.3765 30.0144C23.3549 29.9927 23.3333 29.9711 23.3333 29.9495C23.2468 29.8414 23.1387 29.7117 23.0306 29.6036C23.009 29.582 22.9874 29.5604 22.9658 29.5171C22.8577 29.409 22.7496 29.301 22.6415 29.1929C22.6199 29.1712 22.5983 29.1712 22.5766 29.1496C22.4686 29.0631 22.3605 28.9767 22.2524 28.8902C22.2308 28.8686 22.2091 28.847 22.1875 28.8253C22.0794 28.7389 21.9497 28.6524 21.82 28.5659C21.7984 28.5443 21.7551 28.5227 21.7119 28.5011C21.5822 28.4146 21.4525 28.3497 21.3228 28.2633C21.3012 28.2416 21.2579 28.2416 21.2363 28.22C21.1066 28.1552 20.9985 28.0903 20.8688 28.0255C20.8472 28.0038 20.8255 28.0038 20.8039 27.9822C20.6742 27.9174 20.5229 27.8741 20.3716 27.8093C20.3283 27.7877 20.3067 27.7877 20.2635 27.766C20.1121 27.7228 19.9824 27.6796 19.8311 27.6363C19.7879 27.6363 19.7662 27.6147 19.723 27.6147C19.5717 27.5715 19.442 27.5498 19.2906 27.5066C19.269 27.5066 19.269 27.5066 19.2474 27.5066C19.269 27.3985 19.269 27.2904 19.2906 27.1607C19.3122 26.9878 19.3339 26.7932 19.3555 26.6203C19.3987 26.3176 19.442 26.0366 19.4636 25.7339C19.4852 25.5609 19.5068 25.388 19.5501 25.1934C19.5933 24.8908 19.6581 24.5665 19.7014 24.2638C19.723 24.1125 19.7446 23.9612 19.7879 23.8098C19.8743 23.3775 19.9392 22.9235 20.0257 22.4911C20.0257 22.4695 20.0257 22.4695 20.0257 22.4479C20.1121 21.9939 20.2202 21.5615 20.3067 21.1075C20.3499 20.9562 20.3716 20.8265 20.4148 20.6752C20.4796 20.3725 20.5661 20.0698 20.631 19.7888C20.6742 19.6158 20.7175 19.4645 20.7607 19.2916C20.8255 19.0105 20.912 18.7511 20.9985 18.4701C21.0417 18.2971 21.085 18.1458 21.1498 17.9728C21.1714 17.8647 21.2147 17.7783 21.2363 17.6702C21.4092 17.7134 21.5822 17.735 21.7335 17.7567C21.9497 17.7999 22.1659 17.8431 22.3821 17.8647C22.728 17.9296 23.0739 17.9945 23.4198 18.0377C23.6143 18.0809 23.8305 18.1025 24.0251 18.1458C24.4142 18.2106 24.7817 18.2539 25.1709 18.3187C25.3438 18.3404 25.5168 18.362 25.6681 18.3836C26.2086 18.4484 26.7706 18.5133 27.3327 18.5782C27.3976 18.5782 27.4841 18.5998 27.5489 18.5998C28.0245 18.643 28.5001 18.6862 28.9974 18.7295C29.1919 18.7511 29.3865 18.7511 29.5811 18.7727C29.9486 18.7943 30.3161 18.816 30.6836 18.8376C30.8998 18.8592 31.116 18.8592 31.3322 18.8592C31.6781 18.8808 32.024 18.8808 32.3698 18.9024C32.586 18.9024 32.8238 18.9241 33.04 18.9241C33.1914 18.9241 33.3427 18.9241 33.5156 18.9457V33.3869H33.494ZM33.494 17.0432C33.3427 17.0432 33.1914 17.0432 33.04 17.0432C32.8238 17.0432 32.6293 17.0432 32.4131 17.0216C32.0672 17.0216 31.7213 17 31.3754 16.9784C31.1808 16.9784 30.9863 16.9568 30.7917 16.9568C30.4026 16.9351 30.0134 16.9135 29.6459 16.8919C29.4946 16.8703 29.3432 16.8703 29.1919 16.8703C28.6515 16.8271 28.1326 16.7838 27.5921 16.719C27.5057 16.719 27.3976 16.6973 27.3111 16.6973C26.8787 16.6541 26.4247 16.5892 25.9924 16.546C25.7978 16.5244 25.6249 16.5028 25.4303 16.4595C25.0844 16.4163 24.7385 16.3731 24.3926 16.3082C24.198 16.2866 23.9819 16.2434 23.7873 16.2217C23.463 16.1785 23.1171 16.1136 22.7928 16.0488C22.5983 16.0055 22.3821 15.9839 22.1875 15.9407C22.0794 15.9191 21.9713 15.8975 21.8416 15.8758C21.8849 15.7461 21.9281 15.6164 21.9713 15.4867C22.0146 15.4002 22.0362 15.3138 22.0794 15.2057C22.1443 15.0111 22.2307 14.8165 22.2956 14.622C22.3172 14.5571 22.3388 14.5139 22.3605 14.449C22.4686 14.2112 22.555 13.9518 22.6631 13.714C22.6847 13.6491 22.7064 13.6059 22.728 13.541C22.8145 13.3681 22.8793 13.1735 22.9658 13.0006C23.009 12.9141 23.0523 12.8276 23.0739 12.7411C23.1387 12.5898 23.2036 12.4385 23.2684 12.3088C23.3117 12.2223 23.3549 12.1358 23.3982 12.0494C23.463 11.9196 23.5279 11.7899 23.5927 11.6602C23.636 11.5737 23.6792 11.4873 23.7224 11.3792C23.7873 11.2495 23.8521 11.1198 23.917 11.0117C23.9602 10.9252 24.0035 10.8387 24.0683 10.7522C24.1332 10.6225 24.198 10.5144 24.2629 10.3847C24.3061 10.2983 24.371 10.2118 24.4142 10.1253C24.4791 9.99559 24.5439 9.8875 24.6304 9.77941C24.6736 9.69293 24.7169 9.62808 24.7817 9.54161C24.8466 9.41189 24.9331 9.3038 25.0195 9.17409C25.0628 9.10923 25.106 9.04438 25.1493 8.9579C25.2357 8.80657 25.3438 8.67686 25.4303 8.52553C25.4519 8.48229 25.4735 8.43906 25.5168 8.39582C25.6465 8.22287 25.7546 8.04992 25.8843 7.87698C25.9275 7.81212 25.9708 7.76888 26.014 7.72565C26.1005 7.61755 26.1869 7.48784 26.2734 7.37975C26.3167 7.3149 26.3815 7.25004 26.4247 7.18518C26.5112 7.09871 26.5761 6.99062 26.6626 6.90414C26.7274 6.83929 26.7706 6.77443 26.8355 6.70958C26.922 6.6231 26.9868 6.53663 27.0733 6.45015C27.1382 6.3853 27.1814 6.32044 27.2463 6.25558C27.3111 6.16911 27.3976 6.08264 27.4841 6.01778C27.5489 5.95293 27.5921 5.88807 27.657 5.84483C27.7435 5.75836 27.8083 5.6935 27.8948 5.60703C27.9597 5.54217 28.0029 5.49894 28.0678 5.43408C28.1542 5.36923 28.2191 5.28275 28.3056 5.2179C28.3704 5.17466 28.4137 5.1098 28.4785 5.06657C28.565 4.98009 28.6515 4.91524 28.7379 4.85038C28.7812 4.80714 28.846 4.76391 28.8893 4.72067C28.9974 4.6342 29.1271 4.5261 29.2352 4.43963C29.2568 4.41801 29.2784 4.39639 29.3 4.39639C29.4513 4.2883 29.5811 4.20182 29.7324 4.09373C29.7756 4.05049 29.8405 4.02888 29.8837 4.00726C29.9702 3.9424 30.0783 3.87755 30.1648 3.83431C30.2296 3.79107 30.2728 3.76945 30.3377 3.72622C30.4242 3.68298 30.5107 3.61812 30.5971 3.57489C30.662 3.53165 30.7268 3.51003 30.7917 3.48841C30.8782 3.44518 30.9646 3.40194 31.0511 3.3587C31.116 3.33708 31.1808 3.29385 31.2457 3.27223C31.3322 3.22899 31.4186 3.20737 31.5051 3.16414C31.57 3.14252 31.6348 3.1209 31.6997 3.07766C31.7861 3.05604 31.8726 3.01281 31.9591 2.99119C32.0239 2.96957 32.0888 2.94795 32.1537 2.92633C32.2401 2.90471 32.3266 2.88309 32.4131 2.83986C32.4779 2.81824 32.5428 2.79662 32.586 2.79662C32.6941 2.775 32.7806 2.75338 32.8887 2.73177C32.9319 2.71015 32.9968 2.71014 33.04 2.68853C33.1914 2.66691 33.3427 2.64529 33.494 2.62367V17.0432V17.0432ZM41.5361 3.38032C41.8388 3.44518 42.163 3.53165 42.4873 3.61812C42.5306 3.63974 42.5954 3.63974 42.6387 3.66136C42.9629 3.74783 43.2872 3.83431 43.6115 3.9424C43.8277 4.00726 44.0222 4.07211 44.2384 4.13697C44.5411 4.22344 44.8221 4.33153 45.1032 4.41801C45.2113 4.46125 45.341 4.50448 45.4491 4.54772C45.4923 4.56934 45.5572 4.59096 45.6004 4.61258C45.7517 4.65581 45.8814 4.72067 46.0328 4.78553C46.1625 4.82876 46.2922 4.89362 46.4435 4.93686C46.5084 4.95847 46.5516 4.98009 46.6165 5.00171C46.7678 5.06657 46.8975 5.13142 47.0488 5.19628L47.265 5.28275H47.2866C47.5461 5.39084 47.8055 5.52056 48.0649 5.62865C48.1081 5.65027 48.173 5.67188 48.2162 5.71512C48.3243 5.77998 48.454 5.82321 48.5621 5.88807C48.627 5.90969 48.6918 5.95293 48.7351 5.97455C48.908 6.06102 49.081 6.14749 49.2323 6.23397C49.2323 6.23397 49.2323 6.23397 49.2539 6.23397C49.4485 6.34206 49.6214 6.42853 49.816 6.53663C49.816 6.53663 49.8376 6.53663 49.8376 6.55825L50.1187 6.70958C50.3781 6.86091 50.6591 7.01223 50.9186 7.18518C50.9402 7.18518 50.9402 7.2068 50.9618 7.2068C51.1996 7.35813 51.4374 7.50946 51.6752 7.66079C51.6752 7.66079 51.6968 7.66079 51.6968 7.68241C51.8482 7.7905 52.0211 7.8986 52.1724 8.00669C52.1941 8.00669 52.194 8.02831 52.2157 8.02831C52.367 8.1364 52.5183 8.22287 52.6697 8.33097C52.9291 8.50391 53.1885 8.69848 53.4479 8.89305C53.4695 8.91467 53.5128 8.93628 53.5344 8.9579C53.7506 9.10923 53.9451 9.28218 54.1613 9.43351C54.3559 9.58484 54.5505 9.73617 54.745 9.8875C54.7667 9.90912 54.7883 9.93074 54.8099 9.93074C54.8964 9.99559 54.9612 10.0605 55.0477 10.1253L55.0693 10.1469C55.0909 10.1685 55.0909 10.1685 55.1125 10.1902C55.2206 10.2766 55.3287 10.3847 55.4368 10.4712L55.4584 10.4928C55.5665 10.6009 55.6746 10.6874 55.7827 10.7955L55.8043 10.8171C56.0421 11.0333 56.2583 11.2495 56.4961 11.4657C56.7772 11.7467 57.0582 12.0277 57.3825 12.352C57.5122 12.4817 57.6419 12.6331 57.7716 12.7628C57.7284 12.7844 57.7068 12.7844 57.6635 12.806C57.4906 12.8709 57.296 12.9357 57.1231 13.0222C57.0366 13.0438 56.9717 13.087 56.8853 13.1087C56.7339 13.1735 56.5826 13.2168 56.4313 13.2816C56.3448 13.3032 56.2583 13.3465 56.1719 13.3681C56.0205 13.4113 55.8692 13.4762 55.7179 13.5194C55.6314 13.541 55.5449 13.5843 55.4584 13.6059C55.3071 13.6491 55.1558 13.714 55.0045 13.7572C54.9396 13.7788 54.8964 13.8005 54.8315 13.8221C54.8315 13.8005 54.8099 13.8005 54.8099 13.7788C54.745 13.6491 54.6802 13.4978 54.6153 13.3681C54.6153 13.3465 54.5937 13.3248 54.5937 13.3032C54.5289 13.1735 54.4424 13.0222 54.3559 12.8925C54.3559 12.8925 54.3559 12.8925 54.3559 12.8709C54.2694 12.7411 54.183 12.6114 54.0965 12.4817C54.0965 12.4601 54.0749 12.4601 54.0749 12.4385C53.9884 12.3088 53.9019 12.2007 53.7938 12.0926C53.7722 12.071 53.7722 12.0494 53.7506 12.0277C53.6641 11.9196 53.556 11.8116 53.4479 11.7035C53.4263 11.6818 53.4047 11.6602 53.4047 11.6602C53.2966 11.5521 53.1885 11.444 53.0804 11.3576C53.0588 11.3359 53.0588 11.3359 53.0372 11.3143C52.9291 11.2062 52.7994 11.1198 52.6913 11.0117C52.5616 10.9252 52.4535 10.8387 52.3238 10.7522C52.3021 10.7306 52.2805 10.7306 52.2805 10.709C52.1508 10.6225 52.0427 10.5577 51.913 10.4712C51.8914 10.4496 51.8698 10.4496 51.8482 10.428C51.7184 10.3631 51.5887 10.2983 51.459 10.2334C51.4374 10.2334 51.4158 10.2118 51.3942 10.2118C51.2645 10.1469 51.1131 10.0821 50.9834 10.0388C50.9834 10.0388 50.9618 10.0388 50.9618 10.0172C50.8105 9.95236 50.6808 9.90912 50.5294 9.86588C50.5078 9.86588 50.5078 9.86588 50.4862 9.84426C50.3349 9.80103 50.2051 9.75779 50.0538 9.73617C50.0322 9.73617 50.0106 9.71455 49.989 9.71455C49.8376 9.67131 49.7079 9.6497 49.5566 9.62808C49.535 9.62808 49.5134 9.62808 49.4701 9.60646C49.3188 9.58484 49.1675 9.56322 49.0161 9.56322C48.9945 9.56322 48.9729 9.56322 48.9513 9.56322C48.7999 9.5416 48.627 9.54161 48.4757 9.54161C48.346 9.54161 48.1946 9.5416 48.0649 9.56322C48.0217 9.56322 47.9784 9.56322 47.9352 9.56322C47.8271 9.56322 47.719 9.58484 47.6325 9.58484C47.5893 9.58484 47.5461 9.58484 47.5244 9.60646C47.3947 9.62808 47.2434 9.6497 47.1137 9.67132C47.0921 9.67132 47.0705 9.67132 47.0705 9.69294C46.9407 9.71455 46.8327 9.73617 46.7246 9.77941C46.7029 9.77941 46.6813 9.77941 46.6813 9.80103C46.6381 9.71455 46.5732 9.62808 46.53 9.51999C46.4868 9.45513 46.4651 9.39028 46.4219 9.32542C46.3354 9.17409 46.249 9.04438 46.1841 8.91467C46.1625 8.87143 46.1409 8.84981 46.1192 8.80657C46.0111 8.63363 45.9031 8.46068 45.8166 8.28773C45.795 8.24449 45.7517 8.17964 45.7301 8.1364C45.6652 8.02831 45.5788 7.8986 45.5139 7.7905C45.4707 7.72565 45.4274 7.66079 45.3842 7.59594C45.3194 7.48784 45.2545 7.40137 45.1896 7.3149C45.1464 7.25004 45.1032 7.18518 45.0599 7.12033C44.9951 7.03385 44.9302 6.94738 44.8654 6.8609C44.8221 6.79605 44.7789 6.73119 44.714 6.66634C44.6492 6.57987 44.5843 6.49339 44.5195 6.40692C44.4762 6.34206 44.4114 6.2772 44.3681 6.21235C44.3033 6.12587 44.2384 6.0394 44.1736 5.97455C44.1303 5.90969 44.0655 5.84483 44.0222 5.8016C43.9574 5.71512 43.8925 5.62865 43.8061 5.56379C43.7628 5.49894 43.7196 5.4557 43.6763 5.39084C43.5899 5.30437 43.5034 5.19628 43.4385 5.1098C43.3953 5.06657 43.3737 5.02333 43.3304 5.00171C43.2224 4.872 43.0926 4.74229 42.9846 4.63419C42.9413 4.59096 42.8981 4.54772 42.8765 4.5261C42.79 4.43963 42.7035 4.35316 42.6387 4.2883C42.5954 4.24506 42.5306 4.20183 42.4873 4.13697C42.4225 4.07211 42.336 4.00726 42.2711 3.9424C42.2279 3.89916 42.163 3.85593 42.1198 3.79107C42.055 3.72622 41.9685 3.66136 41.9036 3.59651C41.8604 3.55327 41.7955 3.51003 41.7523 3.46679C41.7091 3.44518 41.6874 3.40194 41.6442 3.38032C41.4713 3.3587 41.5145 3.3587 41.5361 3.38032ZM53.4479 16.5892C53.4479 16.8703 53.4263 17.1513 53.3831 17.4324C53.1236 19.0105 52.1076 20.3725 50.6807 21.0859C50.3565 21.2372 50.0106 21.3886 49.6647 21.475C49.1891 21.6048 48.7783 21.648 48.4108 21.648C47.9352 21.648 47.4812 21.5831 47.0705 21.475C45.2113 20.9562 43.7628 19.3997 43.4385 17.3891C43.3953 17.1081 43.3521 16.8487 43.3521 16.5892C43.3521 16.2001 43.3953 15.8326 43.4818 15.4651C43.5034 15.3354 43.5466 15.184 43.5899 15.0543C43.9141 14.0166 44.5843 13.1087 45.4923 12.4601C45.795 12.2439 46.1409 12.0494 46.4868 11.9196C47.1137 11.6602 47.7622 11.5305 48.4108 11.5305C48.8432 11.5305 49.2539 11.5954 49.6647 11.6818C51.3942 12.1358 52.821 13.4978 53.2966 15.3138C53.3831 15.7894 53.4479 16.2001 53.4479 16.5892ZM35.4397 2.62367C35.4613 2.62367 35.4829 2.62367 35.5262 2.62367C35.5694 2.62367 35.6126 2.64529 35.6559 2.64529C35.7207 2.66691 35.8072 2.66691 35.8721 2.68853C35.9153 2.68853 35.9585 2.71015 36.0018 2.71015C36.0666 2.73176 36.1531 2.73176 36.2179 2.75338C36.2612 2.75338 36.3044 2.775 36.3477 2.775C36.4341 2.79662 36.5206 2.81824 36.6071 2.83986C36.6287 2.83986 36.6719 2.86147 36.6936 2.86147C36.8016 2.90471 36.9314 2.92633 37.0395 2.96957C37.0611 2.96957 37.1043 2.99119 37.1259 2.99119C37.2124 3.01281 37.2989 3.05604 37.3853 3.07766C37.4286 3.09928 37.4718 3.1209 37.5151 3.1209C37.5799 3.14251 37.6664 3.18575 37.7312 3.20737C37.7745 3.22899 37.8177 3.25061 37.861 3.27223C37.9258 3.29385 37.9907 3.33708 38.0555 3.3587C38.0988 3.38032 38.142 3.40194 38.1852 3.42356C38.2501 3.46679 38.3149 3.48841 38.3798 3.53165C38.423 3.55327 38.4663 3.57489 38.5095 3.59651C38.5744 3.63974 38.6608 3.68298 38.7257 3.72622C38.7689 3.74783 38.8122 3.76945 38.8554 3.79107C38.9419 3.85593 39.0284 3.89917 39.1364 3.96402C39.1581 3.98564 39.1797 3.98564 39.2013 4.00726C39.3094 4.07211 39.4175 4.15859 39.5256 4.22344C39.5688 4.24506 39.6121 4.2883 39.6337 4.30992C39.6985 4.35315 39.7634 4.41801 39.8499 4.46125C39.8931 4.50449 39.9363 4.5261 39.9796 4.56934C40.0444 4.61258 40.1093 4.67743 40.1741 4.72067C40.2174 4.76391 40.2606 4.80714 40.3038 4.82876C40.3687 4.872 40.4336 4.93686 40.4984 4.98009C40.5417 5.02333 40.5849 5.06657 40.6281 5.1098C40.693 5.17466 40.7578 5.21789 40.8227 5.28275C40.8659 5.32599 40.9092 5.36923 40.9524 5.41246C41.0173 5.47732 41.0821 5.54217 41.1686 5.60703C41.2118 5.65027 41.2334 5.67188 41.2767 5.71512C41.3848 5.82321 41.4713 5.93131 41.5793 6.01778C41.601 6.0394 41.6442 6.08264 41.6658 6.10426C41.7307 6.19073 41.8172 6.25559 41.882 6.34206C41.9252 6.3853 41.9685 6.42853 42.0117 6.47177C42.0766 6.53663 42.1414 6.60148 42.2063 6.68796C42.2495 6.73119 42.2928 6.79605 42.336 6.83929C42.4009 6.90414 42.4441 6.99062 42.5089 7.05547C42.5522 7.09871 42.5954 7.16357 42.6387 7.2068C42.7035 7.27166 42.7467 7.35813 42.8116 7.42299C42.8548 7.46623 42.8981 7.53108 42.9413 7.57432C43.0062 7.66079 43.071 7.74727 43.1143 7.81212C43.1575 7.85536 43.1791 7.92021 43.2224 7.96345C43.3088 8.07154 43.3737 8.17964 43.4602 8.30935C43.4818 8.33096 43.5034 8.35258 43.5034 8.3742C43.5899 8.50391 43.698 8.65525 43.7844 8.78496C43.8061 8.82819 43.8493 8.87143 43.8709 8.93629C43.9358 9.04438 44.0006 9.13085 44.0655 9.23894C44.1087 9.3038 44.1303 9.34704 44.1736 9.41189C44.2384 9.49837 44.2817 9.60646 44.3465 9.69294C44.3898 9.75779 44.4114 9.82265 44.4546 9.8875C44.5195 9.97397 44.5627 10.0821 44.6276 10.1685C44.6708 10.2334 44.6924 10.2983 44.7356 10.3631C44.7573 10.4063 44.7789 10.428 44.8005 10.4712C44.6708 10.5577 44.5195 10.6442 44.3898 10.7306C44.3465 10.7522 44.3033 10.7955 44.2817 10.8171C44.1952 10.882 44.1087 10.9468 44.0006 11.0333C43.9574 11.0765 43.9141 11.1198 43.8709 11.1414C43.7844 11.2062 43.7196 11.2711 43.6331 11.3359C43.5899 11.3792 43.5466 11.4224 43.5034 11.4657C43.4385 11.5305 43.3737 11.5954 43.2872 11.6818C43.244 11.7251 43.2007 11.7683 43.1575 11.8332C43.0926 11.898 43.0278 11.9845 42.9629 12.071C42.9197 12.1142 42.8765 12.1574 42.8548 12.2223C42.79 12.3088 42.7251 12.3953 42.6603 12.4817C42.6387 12.525 42.5954 12.5682 42.5738 12.6114C42.4873 12.7411 42.4225 12.8709 42.336 13.0006C42.336 13.0006 42.336 13.0222 42.3144 13.0222C42.2279 13.1519 42.163 13.3032 42.0982 13.4546C42.0766 13.4978 42.055 13.541 42.0333 13.5843C41.9901 13.6924 41.9469 13.7788 41.9036 13.8869C41.882 13.9518 41.8604 13.995 41.8388 14.0599C41.7955 14.1464 41.7739 14.2544 41.7307 14.3409C41.7091 14.4058 41.6874 14.4706 41.6658 14.5355C41.6442 14.622 41.6226 14.7301 41.5793 14.8165C41.5577 14.8814 41.5577 14.9462 41.5361 15.0111C41.5145 15.1192 41.4929 15.2057 41.4713 15.3138C41.4713 15.3786 41.4496 15.4435 41.4496 15.5083C41.428 15.6164 41.428 15.7245 41.4064 15.8326C41.4064 15.8758 41.3848 15.9407 41.3848 15.9839C41.3632 16.1569 41.3632 16.3082 41.3632 16.4812C41.3632 16.5028 41.3632 16.546 41.3632 16.5676H41.3415C40.8876 16.6109 40.4552 16.6541 40.0012 16.6973C39.8931 16.6973 39.785 16.719 39.6769 16.719C39.2445 16.7622 38.8338 16.7838 38.423 16.8054C38.4014 16.8054 38.3798 16.8054 38.3582 16.8054C37.9258 16.8271 37.4934 16.8487 37.0395 16.8703C36.9314 16.8703 36.8233 16.8703 36.7152 16.8919C36.2828 16.9135 35.8504 16.9135 35.4397 16.9351H35.4181V2.62367H35.4397ZM35.4397 18.9889C35.8937 18.9889 36.3477 18.9673 36.8016 18.9457C36.9097 18.9457 37.0178 18.9457 37.1259 18.9241C37.5799 18.9024 38.0339 18.8808 38.4879 18.8592C38.5311 18.8592 38.596 18.8592 38.6392 18.8592C39.05 18.8376 39.4823 18.7943 39.9147 18.7727C40.0228 18.7727 40.1309 18.7511 40.2606 18.7511C40.7146 18.7079 41.1686 18.6646 41.6442 18.6214C41.6658 18.6214 41.6874 18.6214 41.7091 18.6214C41.7523 18.7943 41.8172 18.9457 41.882 19.1186C41.882 19.1402 41.9036 19.1619 41.9036 19.1835C41.9685 19.3348 42.0333 19.4861 42.0982 19.6375C42.1198 19.6591 42.1198 19.6807 42.1414 19.7023C42.2063 19.8537 42.2928 19.9834 42.3792 20.1347C42.4008 20.1563 42.4009 20.1779 42.4225 20.1995C42.5089 20.3509 42.5954 20.4806 42.6819 20.6103C42.6819 20.6319 42.7035 20.6319 42.7035 20.6535C42.8981 20.9346 43.1143 21.194 43.3521 21.4534C43.3737 21.475 43.3737 21.475 43.3953 21.4967C43.5034 21.6047 43.6331 21.7345 43.7412 21.8426C43.7628 21.8642 43.7844 21.8858 43.8061 21.8858C43.9358 21.9939 44.0439 22.102 44.1736 22.1885C44.1952 22.2101 44.2168 22.2101 44.2384 22.2317C44.3681 22.3182 44.4978 22.4263 44.6276 22.5127C44.6492 22.5343 44.6708 22.5343 44.6924 22.556C44.8437 22.6424 44.9735 22.7289 45.1248 22.8154C45.1248 22.8154 45.1464 22.8154 45.1464 22.837C45.2977 22.9235 45.4491 22.9883 45.6004 23.0532C45.6004 23.0532 45.622 23.0532 45.622 23.0748C45.7733 23.1397 45.9247 23.2045 46.0976 23.2478C46.1192 23.2478 46.1409 23.2694 46.1625 23.2694C46.3138 23.3126 46.4651 23.3559 46.6381 23.3991C46.6597 23.3991 46.6813 23.4207 46.7246 23.4207C46.8759 23.4639 47.0488 23.4856 47.2002 23.5288C47.2218 23.5288 47.2434 23.5288 47.2866 23.5504C47.4596 23.572 47.6109 23.5937 47.7839 23.6153C47.8055 23.6153 47.8271 23.6153 47.8487 23.6153C48.0217 23.6369 48.2162 23.6369 48.3892 23.6369C48.5189 23.6369 48.6486 23.6369 48.7783 23.6153C48.8216 23.6153 48.8648 23.6153 48.908 23.5937C48.9729 23.5937 49.0377 23.5937 49.1242 23.572C49.1458 23.6585 49.1675 23.745 49.1675 23.8315C49.1891 24.0044 49.2323 24.1774 49.2539 24.3503C49.2972 24.6313 49.3404 24.9124 49.3836 25.1934C49.4053 25.3664 49.4269 25.5393 49.4701 25.7123C49.5134 26.0149 49.5566 26.3176 49.5998 26.6203C49.6214 26.7716 49.6431 26.9229 49.6647 27.0742C49.7079 27.485 49.7512 27.9174 49.7944 28.3497C49.7944 28.3714 49.7944 28.4146 49.7944 28.4362C49.8376 28.8902 49.8809 29.3442 49.9025 29.7982C49.9241 29.9495 49.9241 30.1008 49.9241 30.2305C49.9457 30.5332 49.9673 30.8575 49.989 31.1818C49.989 31.3547 50.0106 31.5277 50.0106 31.7006C50.0322 32.0033 50.0322 32.2843 50.0322 32.587C50.0322 32.7599 50.0322 32.9329 50.0538 33.1274C50.0538 33.2355 50.0538 33.322 50.0538 33.4301H35.4181V18.9889H35.4397ZM35.4397 35.3325H50.0754C50.0754 35.419 50.0754 35.5055 50.0754 35.592C50.0754 35.7433 50.0754 35.8946 50.0538 36.0459C50.0538 36.327 50.0322 36.6296 50.0322 36.9107C50.0322 37.062 50.0106 37.2133 50.0106 37.3863C49.989 37.6889 49.9673 37.9916 49.9673 38.2943C49.9673 38.424 49.9457 38.5537 49.9457 38.6834C49.9241 39.1158 49.8809 39.5481 49.8376 39.9805C49.8376 40.0021 49.8376 40.0237 49.8376 40.067C49.7944 40.4777 49.7512 40.8669 49.7079 41.2776C49.6863 41.4073 49.6647 41.5587 49.6647 41.6884C49.6214 41.991 49.5998 42.2721 49.5566 42.5531C49.535 42.7044 49.5133 42.8558 49.4917 43.0287C49.4485 43.3098 49.4053 43.5908 49.362 43.8718C49.3404 44.0232 49.3188 44.1745 49.2972 44.3258C49.2755 44.3907 49.2755 44.4772 49.2539 44.542C49.2323 44.542 49.2323 44.542 49.2107 44.542C49.1891 44.542 49.1458 44.542 49.1242 44.542C48.9729 44.5204 48.8216 44.5204 48.6702 44.4988C48.6486 44.4988 48.627 44.4988 48.627 44.4988C48.454 44.4988 48.3027 44.4988 48.1298 44.4988C47.9568 44.4988 47.7839 44.5204 47.6109 44.542C47.5893 44.542 47.5677 44.542 47.5461 44.542C47.3731 44.5636 47.2218 44.5853 47.0705 44.6285C47.0488 44.6285 47.0056 44.6501 46.984 44.6501C46.8327 44.6934 46.6813 44.715 46.53 44.7582C46.5084 44.7582 46.4651 44.7798 46.4435 44.7798C46.2922 44.8231 46.1409 44.8663 45.9895 44.9312C45.9679 44.9312 45.9463 44.9528 45.9247 44.9528C45.7733 45.0176 45.622 45.0825 45.4707 45.1473C45.4707 45.1473 45.4491 45.1473 45.4491 45.169C45.2977 45.2338 45.168 45.3203 45.0167 45.3851C44.9951 45.3851 44.9735 45.4068 44.9735 45.4068C44.8437 45.4932 44.714 45.5797 44.5843 45.6662C44.5627 45.6878 44.5411 45.6878 44.5195 45.7094C44.3898 45.7959 44.26 45.8824 44.152 45.9905C44.1303 46.0121 44.1087 46.0337 44.0871 46.0553C43.9574 46.1418 43.8493 46.2499 43.7412 46.358C43.7196 46.3796 43.698 46.4012 43.6763 46.4228C43.5682 46.5309 43.4385 46.639 43.3304 46.7687L43.3088 46.7904C43.2007 46.8984 43.0926 47.0282 43.0062 47.1579C42.9845 47.1795 42.9846 47.1795 42.9629 47.2011C42.8765 47.3308 42.7684 47.4605 42.6819 47.5902C42.6603 47.6119 42.6603 47.6335 42.6387 47.6551C42.5522 47.7848 42.4657 47.9145 42.4008 48.0442C42.3792 48.0659 42.3792 48.0875 42.3576 48.1307C42.2928 48.2604 42.2063 48.4117 42.1414 48.5415C42.1198 48.5631 42.1198 48.5847 42.0982 48.6063C42.0333 48.7576 41.9685 48.909 41.9036 49.0603C41.9036 49.0819 41.9036 49.0819 41.882 49.1035C41.8172 49.2549 41.7739 49.4062 41.7307 49.5575V49.5791C41.7091 49.5791 41.7091 49.5791 41.6874 49.5791C41.2118 49.5143 40.7578 49.4711 40.2822 49.4278C40.1741 49.4278 40.066 49.4062 39.9796 49.4062C39.5472 49.363 39.0932 49.3197 38.6608 49.2981C38.6176 49.2981 38.596 49.2981 38.5528 49.2981C38.0988 49.2765 37.6448 49.2333 37.1908 49.2116C37.0827 49.2116 36.9746 49.2116 36.8665 49.19C36.4125 49.1684 35.9585 49.1468 35.5045 49.1468V35.3325H35.4397ZM53.4479 51.287C53.4479 51.4383 53.4479 51.5897 53.4479 51.7626C53.4263 52.2382 53.3398 52.7138 53.1669 53.1678C52.4751 55.1351 50.7024 56.4755 48.627 56.5836C48.1298 56.6052 47.6325 56.5619 47.1569 56.4322C47.0056 56.389 46.8326 56.3457 46.6813 56.2809C44.7356 55.5891 43.4385 53.7948 43.3304 51.7626C43.3304 51.6978 43.3304 51.6113 43.3304 51.5464C43.3304 51.3302 43.3521 51.0924 43.3953 50.833C43.7412 48.4334 45.7517 46.5958 48.173 46.4877C48.2811 46.4877 48.3676 46.4877 48.4757 46.4877C48.5189 46.4877 48.5621 46.4877 48.6054 46.4877C48.6702 46.4877 48.7567 46.5093 48.8216 46.5093C48.8648 46.5093 48.9296 46.5093 48.9729 46.5309C49.0594 46.5526 49.1242 46.5525 49.2107 46.5742C49.2539 46.5742 49.2972 46.5958 49.362 46.5958C49.4917 46.6174 49.6214 46.6606 49.7512 46.6823C51.8482 47.2443 53.3398 49.1035 53.4479 51.287ZM41.3199 62.8745C41.2551 62.9394 41.1902 63.0043 41.1254 63.0691C41.0821 63.1124 41.0389 63.1556 40.974 63.1988C40.9092 63.2637 40.8443 63.3069 40.8011 63.3718C40.7578 63.415 40.693 63.4583 40.6497 63.5015C40.5849 63.5447 40.52 63.6096 40.4768 63.6528C40.4336 63.6961 40.3687 63.7393 40.3255 63.7825C40.2606 63.8258 40.1958 63.8906 40.1525 63.9339C40.1093 63.9771 40.0444 64.0203 40.0012 64.0636C39.9363 64.1068 39.8715 64.1717 39.8066 64.2149C39.7634 64.2581 39.7201 64.2798 39.6769 64.323C39.5904 64.3878 39.5256 64.4311 39.4391 64.4959C39.4175 64.5176 39.3743 64.5392 39.3526 64.5608C39.2445 64.6257 39.1364 64.7121 39.0284 64.777C38.9851 64.7986 38.9419 64.8202 38.8986 64.8635C38.8338 64.9067 38.7473 64.9499 38.6825 64.9932C38.6392 65.0148 38.596 65.058 38.5311 65.0796C38.4663 65.1229 38.4014 65.1445 38.3366 65.1877C38.2933 65.2094 38.2285 65.231 38.1852 65.2742C38.1204 65.3174 38.0555 65.3391 37.9907 65.3823C37.9474 65.4039 37.8826 65.4255 37.8393 65.4472C37.7745 65.4688 37.7096 65.512 37.6232 65.5336C37.5799 65.5553 37.5367 65.5769 37.4718 65.5985C37.3854 65.6201 37.3205 65.6633 37.234 65.685C37.1908 65.7066 37.1475 65.7066 37.1043 65.7282C36.9962 65.7714 36.8665 65.8147 36.7584 65.8363C36.7368 65.8363 36.7368 65.8363 36.7152 65.8579C36.6071 65.8795 36.499 65.9228 36.4125 65.9444C36.3693 65.9444 36.326 65.966 36.2828 65.966C36.1963 65.9876 36.1315 66.0092 36.045 66.0092C36.0018 66.0092 35.9585 66.0309 35.9153 66.0309C35.8504 66.0525 35.764 66.0525 35.6991 66.0741C35.6559 66.0741 35.6126 66.0957 35.5478 66.0957C35.5045 66.0957 35.4829 66.0957 35.4397 66.1173V51.1357H35.4613C35.8937 51.1357 36.3044 51.1573 36.7368 51.1789C36.8449 51.1789 36.953 51.1789 37.0611 51.2005C37.4934 51.2222 37.9258 51.2438 38.3798 51.2654C38.423 51.2654 38.4447 51.2654 38.4879 51.2654C38.8986 51.287 39.3094 51.3302 39.7418 51.3735C39.8499 51.3735 39.958 51.3951 40.066 51.3951C40.4984 51.4383 40.9524 51.4816 41.4064 51.5464H41.428C41.428 51.6545 41.428 51.7626 41.428 51.8491C41.428 52.022 41.4496 52.1734 41.4713 52.3463C41.4713 52.3896 41.4929 52.4544 41.4929 52.4976C41.5145 52.6057 41.5145 52.7138 41.5361 52.8219C41.5577 52.8868 41.5577 52.9516 41.5793 52.9949C41.601 53.103 41.6226 53.1894 41.6442 53.2975C41.6658 53.3624 41.6874 53.4272 41.6874 53.4921C41.7091 53.5786 41.7523 53.6867 41.7739 53.7731C41.7955 53.838 41.8171 53.9029 41.8388 53.9461C41.882 54.0326 41.9036 54.1407 41.9469 54.2271C41.9685 54.2704 41.9901 54.3352 42.0117 54.3785C42.055 54.4866 42.1198 54.5946 42.163 54.7027C42.1847 54.746 42.2063 54.7892 42.2279 54.8108C42.3144 54.9622 42.3792 55.0919 42.4657 55.2216C42.4873 55.2432 42.4873 55.2648 42.5089 55.2864C42.5738 55.3945 42.6603 55.5026 42.7251 55.6107C42.7467 55.654 42.79 55.6972 42.8332 55.7404C42.8981 55.8269 42.9629 55.9134 43.0278 55.9782C43.071 56.0215 43.1143 56.0647 43.1575 56.1079C43.2224 56.1728 43.2872 56.2593 43.3521 56.3241C43.3953 56.3674 43.4385 56.4106 43.4818 56.4538C43.5466 56.5187 43.6331 56.5836 43.698 56.6484C43.7412 56.6916 43.7844 56.7349 43.8493 56.7781C43.9358 56.843 44.0006 56.9078 44.0871 56.9727C44.1303 57.0159 44.1736 57.0375 44.2168 57.0808C44.3249 57.1456 44.433 57.2321 44.5411 57.297C44.5627 57.3186 44.6059 57.3402 44.6276 57.3618C44.7573 57.4483 44.887 57.5348 45.0167 57.5996C44.9951 57.6429 44.9735 57.6645 44.9518 57.7077C44.9086 57.7726 44.8654 57.859 44.8437 57.9239C44.8005 58.0104 44.7357 58.1185 44.6924 58.2049C44.6492 58.2698 44.6059 58.3347 44.5843 58.4211C44.5195 58.5076 44.4762 58.6157 44.4114 58.7022C44.3681 58.767 44.3249 58.8319 44.3033 58.8967C44.2384 59.0048 44.1736 59.0913 44.1303 59.1994C44.0871 59.2643 44.0655 59.3075 44.0222 59.3723C43.9358 59.5237 43.8277 59.675 43.7412 59.8047C43.7196 59.848 43.6763 59.8912 43.6547 59.9344C43.5899 60.0425 43.525 60.1506 43.4385 60.2371C43.3953 60.3019 43.3521 60.3452 43.3088 60.41C43.244 60.4965 43.2007 60.583 43.1359 60.6478C43.0926 60.7127 43.0494 60.7775 43.0062 60.8208C42.9413 60.8856 42.8981 60.9721 42.8332 61.037C42.79 61.1018 42.7467 61.1667 42.7035 61.2099C42.6387 61.2748 42.5954 61.3613 42.5306 61.4261C42.4873 61.491 42.4441 61.5342 42.4008 61.5991C42.336 61.6639 42.2928 61.7288 42.2279 61.8152C42.1847 61.8585 42.1414 61.9233 42.0982 61.9666C42.0333 62.053 41.9685 62.1179 41.9036 62.1828C41.8604 62.226 41.8172 62.2692 41.7955 62.3125C41.6874 62.4206 41.601 62.5287 41.4929 62.6367C41.4064 62.7881 41.3632 62.8313 41.3199 62.8745ZM57.4041 56.3458C57.296 56.4538 57.2096 56.5403 57.1015 56.6484C57.0798 56.67 57.0582 56.6916 57.0366 56.7133C56.8204 56.9294 56.6042 57.1456 56.388 57.3618C56.3016 57.4483 56.2151 57.5131 56.1286 57.5996C56.107 57.6212 56.0854 57.6212 56.0854 57.6429C56.0205 57.7077 55.9557 57.7726 55.8908 57.8158C55.8692 57.8374 55.826 57.859 55.8043 57.9023C55.7395 57.9455 55.6963 58.0104 55.653 58.0536C55.5882 58.1185 55.5017 58.1833 55.4152 58.2698C55.2206 58.4427 55.0261 58.6157 54.8315 58.767C54.7667 58.8103 54.7234 58.8535 54.6586 58.8967C54.464 59.0697 54.2694 59.221 54.0532 59.3723C53.8803 59.5237 53.6857 59.6534 53.5128 59.7831C53.3182 59.9128 53.1453 60.0641 52.9507 60.1938C52.7994 60.3019 52.648 60.41 52.4967 60.5181C52.2157 60.7127 51.913 60.9073 51.6103 61.1018C51.5887 61.1018 51.5887 61.1235 51.5671 61.1235C51.4806 61.1667 51.3942 61.2315 51.3293 61.2748C51.1564 61.3829 50.9834 61.491 50.8105 61.5991C50.7888 61.5991 50.7888 61.6207 50.7672 61.6207C50.5943 61.7288 50.4213 61.8369 50.2484 61.9233C50.2484 61.9233 50.2268 61.9233 50.2268 61.945L50.2051 61.9666C50.0538 62.053 49.9025 62.1395 49.7295 62.226C49.7295 62.226 49.7079 62.226 49.7079 62.2476C49.5566 62.3341 49.3836 62.4206 49.2323 62.507C49.081 62.5935 48.9296 62.6584 48.7567 62.7448C48.6918 62.7665 48.627 62.8097 48.5621 62.8313C48.454 62.8746 48.3676 62.9178 48.2595 62.9826C48.1514 63.0259 48.0649 63.0691 47.9568 63.1124C47.892 63.134 47.8487 63.1772 47.7839 63.1988C47.6325 63.2637 47.4812 63.3285 47.3299 63.415L47.2866 63.4366L47.1353 63.5015C46.9624 63.588 46.7678 63.6528 46.5948 63.7393H46.5732C46.4003 63.8041 46.2057 63.8906 46.0111 63.9555C45.8598 64.0203 45.7085 64.0636 45.5355 64.1284C45.5139 64.15 45.4707 64.15 45.4491 64.1717C45.341 64.2149 45.2113 64.2581 45.1032 64.3014C44.9302 64.3662 44.7789 64.4095 44.6059 64.4743C44.4979 64.5176 44.3898 64.5392 44.2817 64.5824C44.0655 64.6473 43.8493 64.7337 43.6115 64.7986C43.2872 64.9067 42.9629 64.9932 42.6387 65.0796C42.5954 65.1013 42.5306 65.1013 42.4873 65.1229C42.1847 65.2094 41.8604 65.2742 41.5577 65.3607C41.5361 65.3607 41.5145 65.3823 41.4929 65.3823C41.6226 65.2742 41.7307 65.1661 41.8604 65.058L41.882 65.0364C42.0117 64.9283 42.1198 64.8202 42.2495 64.7121C42.2928 64.6689 42.336 64.6257 42.3792 64.5824C42.4657 64.4959 42.5522 64.4095 42.6387 64.3446C42.6819 64.3014 42.7251 64.2365 42.79 64.1933C42.8765 64.1068 42.9413 64.0419 43.0278 63.9555C43.071 63.9122 43.1359 63.8474 43.1791 63.7825C43.244 63.6961 43.3304 63.6312 43.3953 63.5447C43.4385 63.4799 43.5034 63.4366 43.5466 63.3718C43.6115 63.2853 43.698 63.1988 43.7628 63.134C43.8061 63.0691 43.8709 63.0043 43.9141 62.9394C43.979 62.8529 44.0439 62.7665 44.1303 62.68C44.1736 62.6151 44.2384 62.5503 44.2817 62.4854C44.3465 62.3989 44.4114 62.3125 44.4762 62.226C44.5195 62.1611 44.5843 62.0963 44.6276 62.0314C44.6924 61.945 44.7573 61.8369 44.8221 61.7504C44.8654 61.6855 44.9086 61.6207 44.9735 61.5558C45.0383 61.4477 45.1032 61.3612 45.168 61.2532C45.2113 61.1883 45.2545 61.1234 45.2977 61.0586C45.3626 60.9505 45.4491 60.8424 45.5139 60.7343C45.5572 60.6695 45.6004 60.6046 45.6436 60.5397C45.7301 60.41 45.795 60.2803 45.8814 60.1506C45.9031 60.1074 45.9463 60.0425 45.9679 59.9993C46.076 59.8263 46.1841 59.6318 46.2922 59.4372C46.3138 59.4156 46.3138 59.394 46.3354 59.3723C46.4219 59.1994 46.53 59.0481 46.6165 58.8751C46.6597 58.8103 46.6813 58.7454 46.7246 58.6806C46.7894 58.5725 46.8326 58.4644 46.8975 58.3563H46.9191C47.0488 58.3779 47.1786 58.4211 47.3083 58.4427C47.3515 58.4427 47.3731 58.4427 47.4164 58.4644C47.5461 58.486 47.6542 58.5076 47.7839 58.5076C47.8055 58.5076 47.8271 58.5076 47.8271 58.5076C47.9568 58.5292 48.0865 58.5292 48.2379 58.5292C48.2811 58.5292 48.3027 58.5292 48.3459 58.5292C48.3892 58.5292 48.4108 58.5292 48.454 58.5292C48.5621 58.5292 48.6702 58.5292 48.7783 58.5292C48.9513 58.5292 49.1242 58.5076 49.2755 58.486C49.3404 58.486 49.3836 58.4644 49.4485 58.4644C49.5566 58.4427 49.6647 58.4428 49.7728 58.4211C49.8376 58.3995 49.9025 58.3995 49.9673 58.3779C50.0754 58.3563 50.1619 58.3347 50.27 58.313C50.3349 58.2914 50.3997 58.2698 50.4646 58.2482C50.551 58.2266 50.6591 58.1833 50.7456 58.1617C50.8105 58.1401 50.8753 58.1185 50.9402 58.0969C51.0266 58.0536 51.1131 58.032 51.1996 57.9888C51.2645 57.9671 51.3293 57.9455 51.3942 57.9023C51.4806 57.859 51.5671 57.8158 51.6752 57.7726C51.7401 57.751 51.7833 57.7077 51.8482 57.6861C51.9562 57.6212 52.0427 57.578 52.1508 57.5132C52.1941 57.4915 52.2373 57.4699 52.2589 57.4483C52.3886 57.3618 52.5183 57.2753 52.648 57.1673C52.6697 57.1456 52.7129 57.124 52.7345 57.1024C52.8426 57.0159 52.9291 56.9511 53.0156 56.8646C53.0588 56.8214 53.102 56.7781 53.1453 56.7349C53.2317 56.67 53.2966 56.6052 53.3615 56.5187C53.4047 56.4755 53.4479 56.4322 53.4912 56.3674C53.556 56.3025 53.6209 56.216 53.6857 56.1512C53.729 56.1079 53.7722 56.0431 53.8154 55.9999C53.8803 55.935 53.9452 55.8485 53.9884 55.762C54.0316 55.7188 54.0749 55.654 54.1181 55.5891C54.183 55.5026 54.2262 55.4162 54.291 55.3513C54.3343 55.2864 54.3559 55.2432 54.3991 55.1784C54.464 55.0919 54.5072 54.9838 54.5505 54.8973C54.5721 54.8541 54.6153 54.7892 54.6369 54.746C54.6369 54.7244 54.6586 54.7244 54.6586 54.7027C54.7234 54.7244 54.7667 54.746 54.8315 54.7676C55.0045 54.8324 55.1558 54.8973 55.3071 54.9622C55.3936 55.0054 55.4801 55.027 55.5882 55.0703C55.7395 55.1351 55.9124 55.2 56.0638 55.2648C56.1502 55.3081 56.2151 55.3297 56.3016 55.3729C56.5394 55.4594 56.7556 55.5675 56.9717 55.654C56.9717 55.654 56.9934 55.654 56.9934 55.6756C57.2312 55.7837 57.4474 55.8701 57.6852 55.9782C57.7068 55.9782 57.7284 55.9999 57.75 55.9999C57.5987 56.1079 57.5122 56.2377 57.4041 56.3458ZM59.0471 54.4866C59.0255 54.4649 58.9823 54.4649 58.9607 54.4433C58.7229 54.3352 58.485 54.2271 58.2472 54.119C58.1824 54.0758 58.0959 54.0542 58.0311 54.0109C57.7716 53.9029 57.5122 53.7731 57.2312 53.6651C57.2096 53.6651 57.2095 53.6434 57.1879 53.6434C56.9069 53.5137 56.6258 53.4056 56.3232 53.2975C56.2583 53.2759 56.1719 53.2327 56.107 53.2111C55.8692 53.1246 55.6314 53.0165 55.372 52.93C55.3287 52.9084 55.2855 52.8868 55.2423 52.8868V52.8652C55.2639 52.7355 55.2855 52.6057 55.3071 52.476C55.3071 52.4544 55.3071 52.4112 55.3287 52.3896C55.3504 52.2815 55.3504 52.195 55.3504 52.0869C55.3504 52.0437 55.3504 52.0004 55.3504 51.9572C55.3504 51.8707 55.3504 51.7842 55.372 51.6978C55.372 51.6545 55.372 51.6113 55.372 51.5681C55.372 51.4383 55.372 51.3086 55.372 51.1789C55.372 51.006 55.3504 50.8114 55.3287 50.6385C55.3287 50.5736 55.3071 50.5304 55.3071 50.4655C55.2855 50.3574 55.2639 50.2277 55.2423 50.1196C55.2206 50.0548 55.2206 49.9899 55.199 49.925C55.1774 49.8169 55.1558 49.7089 55.1125 49.6224C55.0909 49.5575 55.0693 49.4927 55.0477 49.4062C55.0261 49.2981 54.9828 49.2116 54.9396 49.1252C54.918 49.0603 54.8964 48.9954 54.8531 48.909C54.8099 48.8225 54.7667 48.7144 54.745 48.6279C54.7234 48.5631 54.6802 48.4982 54.6586 48.4334C54.6153 48.3469 54.5721 48.2604 54.5289 48.1739C54.4856 48.1091 54.464 48.0442 54.4208 47.9794C54.3775 47.8929 54.3127 47.8064 54.2478 47.72C54.2046 47.6551 54.183 47.6119 54.1397 47.547C54.0749 47.4605 54.01 47.3741 53.9451 47.266C53.9019 47.2227 53.8803 47.1795 53.8371 47.1363C53.729 47.0065 53.6425 46.8984 53.5344 46.7687L53.5128 46.7471C53.4047 46.6174 53.275 46.5093 53.1453 46.3796C53.102 46.3364 53.0588 46.3147 53.0156 46.2715C52.9291 46.185 52.8426 46.1202 52.7345 46.0337C52.6913 45.9905 52.6264 45.9472 52.5832 45.9256C52.4967 45.8608 52.4102 45.7959 52.3238 45.731C52.2589 45.6878 52.2157 45.6446 52.1508 45.623C52.0643 45.5581 51.9779 45.5149 51.8914 45.45C51.8265 45.4068 51.7617 45.3852 51.6968 45.3419C51.6103 45.2987 51.5023 45.2554 51.4158 45.1906C51.3509 45.169 51.2861 45.1257 51.2212 45.1041C51.178 45.0825 51.1347 45.0609 51.1131 45.0392C51.1347 44.9312 51.1564 44.8015 51.178 44.6934C51.1996 44.5204 51.2428 44.3475 51.2645 44.1961C51.3077 43.9151 51.3509 43.634 51.3942 43.3314C51.4158 43.1801 51.4374 43.0071 51.459 42.8558C51.5023 42.5315 51.5455 42.2288 51.5887 41.9046C51.6103 41.7748 51.6104 41.6451 51.632 41.5154C51.6752 41.0614 51.7401 40.6291 51.7617 40.1751C51.7617 40.0886 51.7833 40.0238 51.7833 39.9373C51.8265 39.5698 51.8481 39.2022 51.8698 38.8131C51.8914 38.6618 51.8914 38.5105 51.8914 38.3375C51.913 38.0348 51.9346 37.7322 51.9346 37.4511C51.9346 37.2782 51.9562 37.1052 51.9562 36.9323C51.9779 36.6513 51.9779 36.3486 51.9779 36.0676C51.9779 35.8946 51.9779 35.7217 51.9995 35.5487C51.9995 35.4622 51.9995 35.3541 51.9995 35.2677H66.2245C66.0299 42.3153 63.5005 49.0603 59.0471 54.4866ZM51.9995 33.3869C51.9995 33.2788 51.9995 33.1707 51.9995 33.0626C51.9995 32.868 51.9995 32.6734 51.9779 32.5005C51.9779 32.1978 51.9562 31.8952 51.9562 31.6141C51.9562 31.4196 51.9346 31.2466 51.9346 31.0521C51.913 30.7278 51.8914 30.4251 51.8698 30.1008C51.8481 29.9279 51.8482 29.7766 51.8265 29.6036C51.8049 29.1929 51.7617 28.7821 51.7184 28.3714C51.7184 28.3065 51.7184 28.2416 51.6968 28.1768C51.6536 27.7012 51.5887 27.2256 51.5455 26.7716C51.5239 26.6419 51.5023 26.4905 51.5023 26.3608C51.459 26.0366 51.4158 25.6907 51.3725 25.3664C51.3509 25.1934 51.3293 25.0205 51.2861 24.8475C51.2428 24.5449 51.1996 24.2638 51.1347 23.9612C51.1131 23.7882 51.0699 23.5937 51.0483 23.4207C51.0266 23.291 51.005 23.1829 50.9834 23.0532H51.005C51.1564 22.9883 51.3077 22.9235 51.4374 22.8586C51.4374 22.8586 51.459 22.8586 51.459 22.837C51.6103 22.7722 51.7401 22.6857 51.8698 22.6208C51.8914 22.5992 51.913 22.5992 51.9346 22.5776C52.0643 22.4911 52.194 22.4263 52.3238 22.3398C52.3454 22.3182 52.367 22.3182 52.3886 22.2965C52.5183 22.2101 52.6264 22.1236 52.7561 22.0155C52.7777 21.9939 52.7994 21.9939 52.7994 21.9723C52.9291 21.8642 53.0372 21.7777 53.1453 21.6696L53.1669 21.648C53.275 21.5399 53.3831 21.4318 53.4912 21.3237C53.4912 21.3237 53.4912 21.3237 53.5128 21.3021C53.6209 21.194 53.729 21.0643 53.8154 20.9562C53.8371 20.9346 53.8371 20.913 53.8587 20.913C53.9452 20.8049 54.0316 20.6752 54.1181 20.5454C54.1397 20.5238 54.1397 20.5022 54.1613 20.4806C54.2478 20.3509 54.3127 20.2428 54.3991 20.1131C54.4208 20.0915 54.4208 20.0698 54.4424 20.0482C54.5072 19.9185 54.5937 19.7888 54.6586 19.6375C54.6586 19.6158 54.6802 19.6158 54.6802 19.5942C54.745 19.4429 54.8099 19.3132 54.8748 19.1619C54.8748 19.1619 54.8748 19.1619 54.8748 19.1402C54.9396 18.9889 54.9828 18.8376 55.0261 18.6862C55.0261 18.6646 55.0477 18.643 55.0477 18.6214C55.0909 18.4701 55.1342 18.3187 55.1774 18.189C55.1774 18.1674 55.199 18.1458 55.199 18.1025C55.2423 17.9512 55.2639 17.7999 55.2855 17.6486C55.2855 17.6269 55.2855 17.6053 55.3071 17.5621C55.3287 17.4108 55.3504 17.2594 55.3504 17.1081C55.3504 17.0865 55.3504 17.0649 55.3504 17.0432C55.372 16.8703 55.372 16.719 55.372 16.546C55.372 16.3947 55.372 16.265 55.3504 16.1136C55.3504 16.0704 55.3287 16.0272 55.3287 15.9623C55.3287 15.8758 55.3071 15.7677 55.3071 15.6813C55.372 15.6597 55.4152 15.638 55.4801 15.6164C55.6963 15.5516 55.9341 15.4651 56.1502 15.3786C56.2367 15.357 56.3232 15.3138 56.4097 15.2921C56.6907 15.184 56.9717 15.0976 57.2528 14.9895C57.296 14.9679 57.3176 14.9679 57.3609 14.9462C57.5987 14.8598 57.8581 14.7517 58.0959 14.6652C58.1824 14.6436 58.2472 14.6003 58.3337 14.5787C58.5715 14.4922 58.8093 14.4058 59.0255 14.2977C59.0471 14.2761 59.0904 14.2761 59.112 14.2544C63.5222 19.6591 66.0083 26.3825 66.2245 33.322H51.9995V33.3869Z" fill="#222222"/>
</svg>
